<?xml version="1.0" encoding="UTF-8"?>
<svg xmlns="http://www.w3.org/2000/svg" xmlns:xlink="http://www.w3.org/1999/xlink" width="595pt" height="842pt" viewBox="0 0 595 842" version="1.1">
<defs>
<clipPath id="clip1">
  <path d="M 9.75 9.75 L 584.308594 9.75 L 584.308594 831.539062 L 9.75 831.539062 Z M 9.75 9.75 "/>
</clipPath>
</defs>
<g id="surface1">
<g clip-path="url(#clip1)" clip-rule="nonzero">
<path style=" stroke:none;fill-rule:nonzero;fill:rgb(100%,100%,100%);fill-opacity:1;" d="M 9.75 9.75 L 584.308594 9.75 L 584.308594 831.539062 L 9.75 831.539062 Z M 9.75 9.75 "/>
</g>
<path style=" stroke:none;fill-rule:nonzero;fill:rgb(95.292664%,30.979919%,16.078186%);fill-opacity:1;" d="M 565.289062 272.199219 L 321.855469 28.777344 C 307.847656 14.757812 285.109375 14.757812 271.078125 28.777344 L 220.53125 79.332031 L 284.65625 143.453125 C 299.5625 138.421875 316.644531 141.796875 328.519531 153.671875 C 340.460938 165.625 343.808594 182.855469 338.652344 197.808594 L 400.453125 259.613281 C 415.402344 254.457031 432.660156 257.789062 444.59375 269.746094 C 461.289062 286.429688 461.289062 313.472656 444.59375 330.164062 C 427.898438 346.859375 400.863281 346.859375 384.160156 330.164062 C 371.605469 317.601562 368.5 299.164062 374.859375 283.695312 L 317.230469 226.066406 L 317.222656 377.742188 C 321.296875 379.75 325.132812 382.4375 328.527344 385.816406 C 345.210938 402.496094 345.210938 429.53125 328.527344 446.25 C 311.835938 462.929688 284.78125 462.929688 268.109375 446.25 C 251.421875 429.535156 251.421875 402.5 268.109375 385.816406 C 272.234375 381.695312 277.003906 378.582031 282.097656 376.496094 L 282.097656 223.417969 C 277.003906 221.332031 272.242188 218.242188 268.109375 214.09375 C 255.46875 201.460938 252.425781 182.910156 258.910156 167.382812 L 195.691406 104.164062 L 28.777344 271.074219 C 14.753906 285.105469 14.753906 307.84375 28.777344 321.863281 L 272.210938 565.289062 C 286.230469 579.304688 308.960938 579.304688 323 565.289062 L 565.292969 322.996094 C 579.3125 308.96875 579.3125 286.21875 565.289062 272.199219 Z M 565.289062 272.199219 "/>
</g>
</svg>
