<?xml version="1.0" encoding="UTF-8"?>
<svg xmlns="http://www.w3.org/2000/svg" xmlns:xlink="http://www.w3.org/1999/xlink" width="595pt" height="842pt" viewBox="0 0 595 842" version="1.1">
<defs>
<clipPath id="clip1">
  <path d="M 9.75 9.75 L 584.308594 9.75 L 584.308594 831.539062 L 9.75 831.539062 Z M 9.75 9.75 "/>
</clipPath>
</defs>
<g id="surface1">
<g clip-path="url(#clip1)" clip-rule="nonzero">
<path style=" stroke:none;fill-rule:nonzero;fill:rgb(100%,100%,100%);fill-opacity:1;" d="M 9.75 9.75 L 584.308594 9.75 L 584.308594 831.539062 L 9.75 831.539062 Z M 9.75 9.75 "/>
</g>
<path style=" stroke:none;fill-rule:nonzero;fill:rgb(51.371765%,80.39093%,16.078186%);fill-opacity:1;" d="M 512.4375 148.335938 L 317.671875 35.246094 C 305.390625 28.25 289.398438 28.25 277.019531 35.246094 L 80.171875 148.335938 C 67.496094 155.628906 58.527344 169.332031 58.527344 183.992188 L 58.527344 409.871094 C 58.527344 424.53125 67.730469 438.242188 80.40625 445.574219 L 132.414062 475.113281 C 157.273438 487.355469 166.058594 487.355469 177.367188 487.355469 C 214.171875 487.355469 235.195312 465.097656 235.195312 426.28125 L 235.195312 203.28125 C 235.195312 200.132812 233.558594 195.445312 230.464844 195.445312 L 205.628906 195.445312 C 202.484375 195.445312 195.445312 200.132812 195.445312 203.277344 L 195.445312 426.277344 C 195.445312 443.484375 179.882812 460.609375 150.792969 446.0625 L 97.054688 415.089844 C 95.183594 414.074219 93.859375 412.027344 93.859375 409.871094 L 93.859375 183.992188 C 93.859375 181.863281 96.3125 179.726562 98.199219 178.636719 L 294.40625 65.738281 C 296.238281 64.703125 298.933594 64.703125 300.761719 65.738281 L 494.578125 178.609375 C 496.429688 179.726562 495.777344 181.796875 495.777344 183.992188 L 495.777344 409.871094 C 495.777344 412.027344 496.585938 414.125 494.753906 415.164062 L 300.039062 528.125 C 298.367188 529.128906 296.296875 529.128906 294.46875 528.125 L 244.527344 498.316406 C 243.023438 497.441406 241.234375 497.128906 239.789062 497.9375 C 225.894531 505.8125 223.332031 506.859375 210.300781 511.378906 C 207.09375 512.496094 202.363281 514.433594 212.109375 519.898438 L 277.46875 558.5625 C 283.726562 562.183594 290.835938 564.066406 297.992188 564.066406 C 305.246094 564.066406 312.347656 562.183594 318.605469 558.5625 L 512.433594 445.574219 C 525.109375 438.1875 531.117188 424.53125 531.117188 409.871094 L 531.117188 183.992188 C 531.117188 169.332031 525.109375 155.664062 512.4375 148.335938 Z M 358.464844 374.078125 C 306.675781 374.078125 295.269531 359.792969 291.464844 334.039062 C 291.023438 331.265625 288.667969 327.945312 285.847656 327.945312 L 260.535156 327.945312 C 257.402344 327.945312 254.886719 331.746094 254.886719 334.863281 C 254.886719 367.839844 272.8125 407.792969 358.472656 407.792969 C 420.476562 407.792969 456.027344 383.699219 456.027344 341.058594 C 456.027344 298.785156 427.464844 287.6875 367.332031 279.730469 C 306.546875 271.695312 300.375 267.636719 300.375 253.398438 C 300.375 241.65625 305.601562 226 350.609375 226 C 390.824219 226 405.644531 234.628906 411.746094 261.734375 C 412.265625 264.285156 414.59375 266.113281 417.222656 266.113281 L 442.636719 266.113281 C 444.199219 266.113281 445.691406 265.480469 446.789062 264.363281 C 447.847656 263.164062 448.410156 261.65625 448.265625 260.039062 C 444.332031 213.363281 413.320312 191.613281 350.605469 191.613281 C 294.816406 191.613281 261.539062 215.171875 261.539062 254.660156 C 261.539062 297.492188 294.648438 309.332031 348.203125 314.625 C 412.265625 320.90625 417.25 330.269531 417.25 342.871094 C 417.25 364.757812 399.679688 374.078125 358.464844 374.078125 Z M 358.464844 374.078125 "/>
</g>
</svg>
