<?xml version="1.0" encoding="UTF-8"?>
<svg xmlns="http://www.w3.org/2000/svg" xmlns:xlink="http://www.w3.org/1999/xlink" width="595pt" height="842pt" viewBox="0 0 595 842" version="1.1">
<defs>
<clipPath id="clip1">
  <path d="M 9.75 9.75 L 584.308594 9.75 L 584.308594 831.539062 L 9.75 831.539062 Z M 9.75 9.75 "/>
</clipPath>
</defs>
<g id="surface1">
<g clip-path="url(#clip1)" clip-rule="nonzero">
<path style=" stroke:none;fill-rule:nonzero;fill:rgb(100%,100%,100%);fill-opacity:1;" d="M 9.75 9.75 L 584.308594 9.75 L 584.308594 831.539062 L 9.75 831.539062 Z M 9.75 9.75 "/>
</g>
<path style=" stroke:none;fill-rule:nonzero;fill:rgb(0,215,253);fill-opacity:1;" d="M 488.273438 213.996094 C 478.558594 210.460938 468.398438 206.929688 457.796875 203.835938 C 460.449219 193.238281 462.65625 182.636719 464.421875 172.480469 C 473.699219 114.179688 463.539062 73.101562 435.273438 57.203125 C 426.882812 52.34375 417.605469 50.136719 407.007812 50.136719 C 376.089844 50.136719 336.78125 73.101562 297.03125 111.527344 C 257.28125 73.101562 217.972656 50.136719 187.054688 50.136719 C 176.453125 50.136719 167.179688 52.34375 158.785156 57.203125 C 130.519531 73.542969 120.363281 114.621094 129.636719 172.480469 C 131.402344 182.636719 133.613281 193.238281 136.261719 203.835938 C 125.660156 206.929688 115.503906 210.019531 105.785156 213.996094 C 50.578125 235.195312 20.542969 264.347656 20.542969 297.03125 C 20.542969 329.714844 51.019531 358.863281 105.785156 380.0625 C 115.503906 383.597656 125.660156 387.132812 136.261719 390.222656 C 133.613281 400.824219 131.402344 411.421875 129.636719 421.582031 C 120.363281 479.882812 130.519531 520.957031 158.785156 536.859375 C 167.179688 541.714844 176.453125 543.925781 187.054688 543.925781 C 218.414062 543.925781 257.722656 520.957031 297.03125 482.53125 C 336.78125 520.957031 376.089844 543.925781 407.007812 543.925781 C 417.605469 543.925781 426.882812 541.714844 435.273438 536.859375 C 463.539062 520.515625 473.699219 479.441406 464.421875 421.582031 C 462.65625 411.421875 460.449219 400.824219 457.796875 390.222656 C 468.398438 387.132812 478.558594 384.039062 488.273438 380.0625 C 543.484375 358.863281 573.515625 329.714844 573.515625 297.03125 C 573.515625 264.347656 543.484375 235.195312 488.273438 213.996094 Z M 422.90625 79.285156 C 441.015625 89.886719 447.199219 122.570312 439.691406 168.945312 C 438.363281 178.21875 436.15625 187.9375 433.507812 198.09375 C 410.539062 192.796875 386.246094 189.261719 360.628906 187.054688 C 345.613281 165.855469 330.15625 146.863281 314.695312 129.636719 C 347.378906 97.394531 380.507812 75.3125 407.449219 75.3125 C 413.191406 75.3125 418.488281 76.636719 422.90625 79.285156 Z M 373.4375 341.195312 C 365.488281 355.332031 356.214844 369.464844 346.496094 383.597656 C 330.15625 384.921875 313.8125 385.363281 297.03125 385.363281 C 279.804688 385.363281 263.464844 384.921875 247.5625 383.597656 C 237.847656 369.464844 229.011719 355.332031 221.0625 341.195312 C 212.671875 326.621094 204.722656 311.605469 197.652344 297.03125 C 204.722656 282.453125 212.671875 267.4375 221.0625 252.863281 C 229.011719 238.730469 238.289062 224.597656 248.003906 210.460938 C 264.347656 209.136719 280.6875 208.695312 297.472656 208.695312 C 314.695312 208.695312 331.039062 209.136719 346.9375 210.460938 C 356.65625 224.597656 365.488281 238.730469 373.4375 252.863281 C 381.832031 267.4375 389.78125 282.453125 396.847656 297.03125 C 389.339844 311.605469 381.832031 326.179688 373.4375 341.195312 Z M 410.097656 326.621094 C 416.722656 342.082031 422.023438 357.097656 426.882812 372.113281 C 411.863281 375.648438 395.964844 378.296875 379.179688 380.507812 C 384.480469 372.113281 390.222656 363.28125 395.082031 354.003906 C 400.382812 344.730469 405.238281 335.457031 410.097656 326.621094 Z M 297.03125 446.316406 C 286.429688 434.832031 276.269531 422.464844 266.554688 409.65625 C 276.714844 410.097656 286.871094 410.539062 297.03125 410.539062 C 307.1875 410.539062 317.347656 410.097656 327.503906 409.65625 C 317.789062 422.464844 307.628906 434.832031 297.03125 446.316406 Z M 214.878906 380.0625 C 198.09375 377.855469 182.195312 375.207031 167.179688 371.671875 C 172.035156 357.097656 177.335938 341.640625 183.960938 326.179688 C 188.820312 335.015625 193.679688 344.289062 198.980469 353.121094 C 204.277344 362.839844 209.578125 371.230469 214.878906 380.0625 Z M 183.960938 267.4375 C 177.335938 251.980469 172.035156 236.960938 167.179688 221.945312 C 182.195312 218.414062 198.09375 215.761719 214.878906 213.554688 C 209.578125 221.945312 203.835938 230.777344 198.980469 240.054688 C 193.679688 249.328125 188.820312 258.605469 183.960938 267.4375 Z M 297.03125 147.746094 C 307.628906 159.226562 317.789062 171.59375 327.503906 184.402344 C 317.347656 183.960938 307.1875 183.519531 297.03125 183.519531 C 286.871094 183.519531 276.714844 183.960938 266.554688 184.402344 C 276.269531 171.59375 286.429688 159.226562 297.03125 147.746094 Z M 395.082031 240.496094 L 379.179688 213.996094 C 395.964844 216.203125 411.863281 218.855469 426.882812 222.386719 C 422.023438 236.960938 416.722656 252.421875 410.097656 267.878906 C 405.238281 258.605469 400.382812 249.328125 395.082031 240.496094 Z M 154.371094 168.945312 C 146.863281 122.570312 153.046875 89.886719 171.152344 79.285156 C 175.570312 76.636719 180.871094 75.3125 186.613281 75.3125 C 213.113281 75.3125 246.238281 96.953125 279.363281 129.636719 C 263.90625 146.421875 248.445312 165.855469 233.429688 187.054688 C 207.8125 189.261719 183.519531 193.238281 160.554688 198.09375 C 157.902344 187.9375 156.136719 178.21875 154.371094 168.945312 Z M 45.277344 297.03125 C 45.277344 276.269531 70.453125 254.1875 114.621094 237.847656 C 123.453125 234.3125 133.171875 231.222656 142.886719 228.570312 C 149.953125 250.65625 158.785156 274.0625 169.386719 297.472656 C 158.785156 320.878906 149.511719 343.847656 142.886719 365.929688 C 81.9375 348.265625 45.277344 321.761719 45.277344 297.03125 Z M 171.152344 514.773438 C 153.046875 504.175781 146.863281 471.488281 154.371094 425.113281 C 155.695312 415.839844 157.902344 406.121094 160.554688 395.964844 C 183.519531 401.265625 207.8125 404.796875 233.429688 407.007812 C 248.445312 428.207031 263.90625 447.199219 279.363281 464.421875 C 246.679688 496.664062 213.554688 518.75 186.613281 518.75 C 180.871094 518.75 175.570312 517.425781 171.152344 514.773438 Z M 439.691406 425.113281 C 447.199219 471.488281 441.015625 504.175781 422.90625 514.773438 C 418.488281 517.425781 413.191406 518.75 407.449219 518.75 C 380.949219 518.75 347.820312 497.105469 314.695312 464.421875 C 330.15625 447.640625 345.613281 428.207031 360.628906 407.007812 C 386.246094 404.796875 410.539062 400.824219 433.507812 395.964844 C 436.15625 406.121094 437.921875 415.839844 439.691406 425.113281 Z M 479.441406 356.214844 C 470.605469 359.746094 460.890625 362.839844 451.171875 365.488281 C 444.105469 343.40625 435.273438 319.996094 424.671875 296.589844 C 435.273438 273.179688 444.546875 250.210938 451.171875 228.128906 C 512.125 245.796875 548.78125 272.296875 548.78125 297.03125 C 548.78125 317.789062 523.164062 339.871094 479.441406 356.214844 Z M 479.441406 356.214844 "/>
</g>
</svg>
