<?xml version="1.0" encoding="UTF-8"?>
<svg xmlns="http://www.w3.org/2000/svg" xmlns:xlink="http://www.w3.org/1999/xlink" width="595pt" height="842pt" viewBox="0 0 595 842" version="1.1">
<defs>
<clipPath id="clip1">
  <path d="M 9.75 9.75 L 584.308594 9.75 L 584.308594 831.539062 L 9.75 831.539062 Z M 9.75 9.75 "/>
</clipPath>
</defs>
<g id="surface1">
<g clip-path="url(#clip1)" clip-rule="nonzero">
<path style=" stroke:none;fill-rule:nonzero;fill:rgb(100%,100%,100%);fill-opacity:1;" d="M 9.75 9.75 L 584.308594 9.75 L 584.308594 831.539062 L 9.75 831.539062 Z M 9.75 9.75 "/>
</g>
<path style=" stroke:none;fill-rule:nonzero;fill:rgb(46.273804%,29.019165%,73.724365%);fill-opacity:1;" d="M 385.222656 384.09375 C 401.617188 382.394531 414.054688 368.261719 413.488281 351.300781 C 412.925781 334.34375 398.792969 320.773438 381.832031 320.773438 L 380.699219 320.773438 C 363.175781 321.339844 349.605469 336.039062 350.171875 353.5625 C 350.738281 362.042969 354.128906 369.394531 359.21875 374.480469 C 339.996094 412.359375 310.597656 440.0625 266.5 463.238281 C 236.539062 479.070312 205.445312 484.722656 174.351562 480.765625 C 148.910156 477.375 129.125 466.066406 116.6875 447.410156 C 98.597656 419.707031 96.898438 389.746094 112.164062 359.78125 C 122.90625 338.300781 139.867188 322.46875 150.605469 314.554688 C 148.347656 307.207031 144.953125 294.769531 143.257812 285.722656 C 61.285156 345.082031 69.761719 425.363281 94.636719 463.238281 C 113.292969 491.507812 151.171875 509.03125 193.007812 509.03125 C 204.3125 509.03125 215.621094 507.902344 226.929688 505.074219 C 299.292969 490.941406 354.128906 447.976562 385.222656 384.09375 Z M 385.222656 384.09375 "/>
<path style=" stroke:none;fill-rule:nonzero;fill:rgb(46.273804%,29.019165%,73.724365%);fill-opacity:1;" d="M 484.722656 313.988281 C 441.757812 263.675781 378.4375 235.972656 306.074219 235.972656 L 297.03125 235.972656 C 291.941406 225.796875 281.199219 219.011719 269.328125 219.011719 L 268.199219 219.011719 C 250.671875 219.578125 237.105469 234.277344 237.667969 251.804688 C 238.234375 268.761719 252.367188 282.332031 269.328125 282.332031 L 270.460938 282.332031 C 282.898438 281.765625 293.636719 273.851562 298.160156 263.109375 L 308.335938 263.109375 C 351.300781 263.109375 392.007812 275.546875 428.753906 299.855469 C 457.019531 318.511719 477.375 342.824219 488.679688 372.21875 C 498.289062 395.964844 497.726562 419.144531 487.550781 438.929688 C 471.71875 468.894531 445.148438 485.289062 410.097656 485.289062 C 387.484375 485.289062 366 478.503906 354.695312 473.414062 C 348.476562 479.070312 337.167969 488.113281 329.253906 493.769531 C 353.5625 505.074219 378.4375 511.292969 402.183594 511.292969 C 456.457031 511.292969 496.59375 481.332031 511.859375 451.367188 C 528.253906 418.578125 527.125 362.042969 484.722656 313.988281 Z M 484.722656 313.988281 "/>
<path style=" stroke:none;fill-rule:nonzero;fill:rgb(46.273804%,29.019165%,73.724365%);fill-opacity:1;" d="M 197.53125 393.703125 C 198.09375 410.664062 212.230469 424.230469 229.1875 424.230469 L 230.320312 424.230469 C 247.84375 423.667969 261.414062 408.96875 260.847656 391.441406 C 260.28125 374.480469 246.148438 360.914062 229.1875 360.914062 L 228.058594 360.914062 C 226.929688 360.914062 225.230469 360.914062 224.101562 361.480469 C 200.921875 323.035156 191.3125 281.199219 194.703125 235.972656 C 196.964844 202.054688 208.273438 172.65625 228.058594 148.347656 C 244.453125 127.429688 276.113281 117.253906 297.59375 116.6875 C 357.519531 115.554688 382.960938 190.179688 384.65625 220.144531 C 392.007812 221.839844 404.445312 225.796875 412.925781 228.625 C 406.140625 137.039062 349.605469 89.550781 295.335938 89.550781 C 244.453125 89.550781 197.53125 126.296875 178.875 180.570312 C 152.867188 252.933594 169.828125 322.46875 201.488281 377.308594 C 198.660156 381.265625 196.964844 387.484375 197.53125 393.703125 Z M 197.53125 393.703125 "/>
</g>
</svg>
