<?xml version="1.0" encoding="UTF-8"?>
<svg xmlns="http://www.w3.org/2000/svg" xmlns:xlink="http://www.w3.org/1999/xlink" width="595pt" height="842pt" viewBox="0 0 595 842" version="1.1">
<defs>
<clipPath id="clip1">
  <path d="M 9.75 9.75 L 584.308594 9.75 L 584.308594 831.539062 L 9.75 831.539062 Z M 9.75 9.75 "/>
</clipPath>
</defs>
<g id="surface1">
<g clip-path="url(#clip1)" clip-rule="nonzero">
<path style=" stroke:none;fill-rule:nonzero;fill:rgb(100%,100%,100%);fill-opacity:1;" d="M 9.75 9.75 L 584.308594 9.75 L 584.308594 831.539062 L 9.75 831.539062 Z M 9.75 9.75 "/>
</g>
<path style=" stroke:none;fill-rule:evenodd;fill:rgb(85.096741%,7.843018%,1.568604%);fill-opacity:1;" d="M 173.234375 506.074219 C 294.542969 522.636719 413.699219 538.902344 535.21875 555.488281 C 493.816406 486.558594 453.480469 419.394531 412.820312 351.683594 Z M 569.457031 124.542969 C 558.765625 140.601562 548.050781 156.648438 537.371094 172.71875 C 500.695312 227.894531 464.023438 283.074219 427.378906 338.277344 C 425.339844 341.351562 422.695312 343.789062 425.570312 348.527344 C 460.972656 406.992188 496.101562 465.628906 531.316406 524.210938 C 536.871094 533.464844 542.488281 542.683594 549.675781 551.5625 C 556.792969 409.375 563.910156 267.183594 571.023438 124.996094 Z M 86.140625 306.835938 C 87.796875 308.402344 91.929688 309.316406 93.855469 308.367188 C 127.816406 291.675781 161.992188 275.355469 195.210938 257.292969 C 206.046875 251.40625 214.375 240.847656 223.707031 232.289062 C 254.613281 203.949219 285.46875 175.546875 316.308594 147.144531 C 318.195312 145.398438 320.429688 143.710938 321.554688 141.511719 C 332.632812 119.863281 343.519531 98.101562 354.792969 75.714844 C 341.351562 70.660156 328.609375 65.71875 315.707031 61.222656 C 313.960938 60.613281 311.203125 61.824219 309.308594 62.878906 C 279.445312 79.558594 249.023438 95.355469 220.113281 113.546875 C 205.648438 122.648438 193.863281 136.0625 181.054688 147.746094 C 160.414062 166.585938 139.796875 185.472656 119.453125 204.640625 C 114.054688 209.730469 109.132812 215.542969 104.929688 221.664062 C 91.015625 241.921875 77.519531 262.472656 63.402344 283.609375 C 71.292969 291.765625 78.464844 299.566406 86.140625 306.835938 Z M 210.257812 279.136719 C 193.367188 350.507812 176.574219 421.476562 159.21875 494.773438 C 240.589844 442.34375 320.082031 391.125 399.046875 340.246094 C 336.207031 319.910156 273.570312 299.632812 210.257812 279.136719 Z M 548.714844 125.234375 C 479.964844 136.722656 412.859375 147.929688 344.886719 159.285156 C 368.039062 215.601562 390.726562 270.789062 414.058594 327.546875 C 459.203125 259.707031 503.453125 193.234375 548.714844 125.234375 Z M 213.09375 264.539062 C 275.003906 284.636719 335.679688 304.335938 398.121094 324.609375 C 374.933594 268.117188 352.539062 213.601562 329.683594 157.933594 C 290.75 193.527344 252.398438 228.597656 213.09375 264.539062 Z M 88.699219 348.453125 C 66.742188 400.9375 45.535156 451.636719 23.941406 503.25 C 65.441406 502.023438 105.667969 500.835938 147.277344 499.605469 C 127.742188 449.203125 108.589844 399.789062 88.699219 348.453125 Z M 148.734375 463.710938 L 150.261719 463.375 C 165.070312 401.804688 180.09375 340.652344 195.210938 276.671875 C 161.484375 294.203125 129.3125 310.921875 96.265625 328.101562 C 113.132812 371.941406 131.117188 418.1875 148.734375 463.710938 Z M 523.832031 115.246094 C 504.136719 110.03125 484.445312 104.796875 464.742188 99.617188 C 436.421875 92.167969 408.078125 84.816406 379.777344 77.304688 C 376.238281 76.363281 373.683594 75.75 371.601562 80.011719 C 361.597656 100.503906 351.285156 120.84375 341.121094 141.261719 C 340.808594 141.894531 340.875 142.710938 340.632812 144.296875 C 401.960938 135.003906 462.882812 125.765625 523.792969 116.535156 Z M 409.578125 68.632812 L 570.09375 113.039062 C 560.890625 86.808594 552.351562 62.484375 543.570312 37.46875 L 409.8125 67.125 Z M 162.34375 517.898438 C 142.460938 515.605469 122.054688 517.710938 101.890625 518.058594 C 85.328125 518.339844 68.765625 518.96875 52.203125 519.488281 C 50.496094 519.539062 48.796875 519.882812 47.097656 521.722656 C 184.027344 534.378906 320.957031 547.039062 457.882812 559.707031 L 458.160156 557.875 C 414.265625 551.882812 370.371094 545.890625 326.476562 539.902344 C 271.78125 532.433594 217.175781 524.21875 162.34375 517.898438 Z M 26.648438 456.003906 C 44.292969 415.0625 61.863281 374.09375 79.578125 333.179688 C 81.347656 329.078125 81.210938 326.289062 77.746094 322.988281 C 70.332031 315.933594 63.449219 308.332031 55.347656 299.90625 C 44.398438 353.964844 33.71875 406.6875 23.03125 459.40625 L 24.226562 459.96875 C 25.042969 458.65625 26.042969 457.414062 26.648438 456.003906 Z M 374.417969 57.824219 C 404.175781 50.148438 434.363281 44.148438 464.375 37.449219 C 466.316406 37.011719 468.21875 36.375 470.128906 35.824219 L 469.832031 34.359375 C 427.5625 40.042969 385.292969 45.730469 340.890625 51.707031 C 353 56.996094 362.328125 60.945312 374.417969 57.824219 Z M 374.417969 57.824219 "/>
</g>
</svg>
