<?xml version="1.0" encoding="UTF-8"?>
<svg xmlns="http://www.w3.org/2000/svg" xmlns:xlink="http://www.w3.org/1999/xlink" width="595pt" height="842pt" viewBox="0 0 595 842" version="1.1">
<defs>
<clipPath id="clip1">
  <path d="M 9.75 9.75 L 584.308594 9.75 L 584.308594 831.539062 L 9.75 831.539062 Z M 9.75 9.75 "/>
</clipPath>
</defs>
<g id="surface1">
<g clip-path="url(#clip1)" clip-rule="nonzero">
<path style=" stroke:none;fill-rule:nonzero;fill:rgb(100%,100%,100%);fill-opacity:1;" d="M 9.75 9.75 L 584.308594 9.75 L 584.308594 831.539062 L 9.75 831.539062 Z M 9.75 9.75 "/>
</g>
<path style=" stroke:none;fill-rule:nonzero;fill:rgb(8.235168%,44.7052%,71.37146%);fill-opacity:1;" d="M 97.457031 518.410156 L 53.050781 20.332031 L 541.007812 20.332031 L 496.558594 518.332031 L 296.734375 573.734375 Z M 97.457031 518.410156 "/>
<path style=" stroke:none;fill-rule:nonzero;fill:rgb(19.999695%,66.273499%,86.273193%);fill-opacity:1;" d="M 297.035156 531.390625 L 458.503906 486.621094 L 496.492188 61.054688 L 297.035156 61.054688 Z M 297.035156 531.390625 "/>
<path style=" stroke:none;fill-rule:nonzero;fill:rgb(100%,100%,100%);fill-opacity:1;" d="M 297.035156 241.507812 L 377.867188 241.507812 L 383.453125 178.953125 L 297.035156 178.953125 L 297.035156 117.867188 L 450.214844 117.867188 L 448.75 134.257812 L 433.730469 302.59375 L 297.035156 302.59375 Z M 297.035156 241.507812 "/>
<path style=" stroke:none;fill-rule:nonzero;fill:rgb(92.155457%,92.155457%,92.155457%);fill-opacity:1;" d="M 297.398438 400.15625 L 297.128906 400.234375 L 229.097656 381.867188 L 224.746094 333.144531 L 163.433594 333.144531 L 171.988281 429.0625 L 297.117188 463.792969 L 297.398438 463.710938 Z M 297.398438 400.15625 "/>
<path style=" stroke:none;fill-rule:nonzero;fill:rgb(100%,100%,100%);fill-opacity:1;" d="M 372.675781 300.011719 L 365.316406 381.816406 L 297.183594 400.207031 L 297.183594 463.765625 L 422.417969 429.058594 L 423.335938 418.738281 L 433.960938 300.011719 Z M 372.675781 300.011719 "/>
<path style=" stroke:none;fill-rule:nonzero;fill:rgb(92.155457%,92.155457%,92.155457%);fill-opacity:1;" d="M 297.242188 117.867188 L 297.242188 178.953125 L 149.6875 178.953125 L 148.464844 165.226562 L 145.683594 134.257812 L 144.21875 117.867188 Z M 297.035156 241.515625 L 297.035156 302.605469 L 229.859375 302.605469 L 228.636719 288.875 L 225.851562 257.90625 L 224.394531 241.515625 Z M 297.035156 241.515625 "/>
</g>
</svg>
