<?xml version="1.0" encoding="UTF-8"?>
<svg xmlns="http://www.w3.org/2000/svg" xmlns:xlink="http://www.w3.org/1999/xlink" width="595pt" height="842pt" viewBox="0 0 595 842" version="1.1">
<defs>
<clipPath id="clip1">
  <path d="M 9.75 9.75 L 584.308594 9.75 L 584.308594 831.539062 L 9.75 831.539062 Z M 9.75 9.75 "/>
</clipPath>
</defs>
<g id="surface1">
<g clip-path="url(#clip1)" clip-rule="nonzero">
<path style=" stroke:none;fill-rule:nonzero;fill:rgb(100%,100%,100%);fill-opacity:1;" d="M 9.75 9.75 L 584.308594 9.75 L 584.308594 831.539062 L 9.75 831.539062 Z M 9.75 9.75 "/>
</g>
<path style=" stroke:none;fill-rule:nonzero;fill:rgb(0%,0%,0%);fill-opacity:1;" d="M 573.824219 449.140625 C 553.683594 454.265625 541.230469 449.363281 530.054688 432.578125 C 504.96875 394.992188 477.277344 359.128906 450.554688 322.601562 C 447.109375 317.875 443.53125 313.238281 439.070312 307.363281 C 407.449219 350.03125 375.867188 390.664062 346.230469 432.933594 C 335.632812 448.039062 324.503906 454.617188 304.714844 449.273438 L 423.613281 289.699219 L 312.929688 145.582031 C 331.964844 141.871094 345.128906 143.769531 356.789062 160.820312 C 382.539062 198.449219 410.9375 234.269531 439.25 272.164062 C 467.734375 234.402344 495.78125 198.539062 522.28125 161.261719 C 532.925781 146.15625 544.367188 140.414062 563.492188 145.976562 C 549.003906 165.191406 534.824219 184.09375 520.558594 202.867188 C 501.304688 228.171875 482.398438 253.789062 462.4375 278.566406 C 455.324219 287.402344 456.472656 293.144531 462.832031 301.492188 C 499.757812 350.03125 536.238281 399.054688 573.824219 449.140625 Z M 573.824219 449.140625 "/>
<path style=" stroke:none;fill-rule:nonzero;fill:rgb(0%,0%,0%);fill-opacity:1;" d="M 20.234375 287.046875 C 23.414062 271.105469 25.535156 254.851562 29.953125 239.214844 C 56.453125 144.566406 165.101562 105.210938 239.746094 163.867188 C 283.46875 198.273438 294.335938 246.769531 292.171875 301.445312 L 45.71875 301.445312 C 42.007812 399.542969 112.632812 458.769531 202.644531 428.558594 C 234.222656 417.960938 252.820312 393.226562 262.136719 362.308594 C 266.863281 346.804688 274.679688 344.378906 289.257812 348.792969 C 281.792969 387.484375 264.875 419.816406 229.542969 440.042969 C 176.542969 470.34375 100.882812 460.535156 61.089844 418.445312 C 37.59375 393.710938 27.609375 362.925781 23.195312 329.667969 C 22.53125 324.371094 21.160156 319.15625 20.101562 313.902344 C 20.191406 304.949219 20.234375 296 20.234375 287.046875 Z M 46.160156 280.46875 L 268.894531 280.46875 C 267.4375 209.535156 223.269531 159.140625 162.894531 158.699219 C 96.644531 158.167969 49.03125 207.371094 46.160156 280.46875 Z M 46.160156 280.46875 "/>
</g>
</svg>
