<?xml version="1.0" encoding="UTF-8"?>
<svg xmlns="http://www.w3.org/2000/svg" xmlns:xlink="http://www.w3.org/1999/xlink" width="595pt" height="842pt" viewBox="0 0 595 842" version="1.1">
<defs>
<clipPath id="clip1">
  <path d="M 9.75 9.75 L 584.308594 9.75 L 584.308594 831.539062 L 9.75 831.539062 Z M 9.75 9.75 "/>
</clipPath>
</defs>
<g id="surface1">
<g clip-path="url(#clip1)" clip-rule="nonzero">
<path style=" stroke:none;fill-rule:nonzero;fill:rgb(100%,100%,100%);fill-opacity:1;" d="M 9.75 9.75 L 584.308594 9.75 L 584.308594 831.539062 L 9.75 831.539062 Z M 9.75 9.75 "/>
</g>
<path style=" stroke:none;fill-rule:nonzero;fill:rgb(89.4104%,30.195618%,14.901733%);fill-opacity:1;" d="M 98.441406 517.316406 L 54.253906 21.695312 L 539.808594 21.695312 L 495.570312 517.242188 L 296.734375 572.363281 Z M 98.441406 517.316406 "/>
<path style=" stroke:none;fill-rule:nonzero;fill:rgb(94.508362%,39.607239%,16.078186%);fill-opacity:1;" d="M 297.03125 530.234375 L 457.703125 485.683594 L 495.503906 62.21875 L 297.03125 62.21875 Z M 297.03125 530.234375 "/>
<path style=" stroke:none;fill-rule:nonzero;fill:rgb(92.155457%,92.155457%,92.155457%);fill-opacity:1;" d="M 297.03125 246.039062 L 216.59375 246.039062 L 211.035156 183.789062 L 297.03125 183.789062 L 297.03125 123.007812 L 144.605469 123.007812 L 146.0625 139.3125 L 161 306.828125 L 297.03125 306.828125 Z M 297.03125 403.90625 L 296.761719 403.980469 L 229.066406 385.695312 L 224.742188 337.222656 L 163.714844 337.222656 L 172.230469 432.664062 L 296.75 467.226562 L 297.03125 467.152344 Z M 297.03125 403.90625 "/>
<path style=" stroke:none;fill-rule:nonzero;fill:rgb(100%,100%,100%);fill-opacity:1;" d="M 296.816406 246.039062 L 296.816406 306.828125 L 371.667969 306.828125 L 364.613281 385.660156 L 296.816406 403.957031 L 296.816406 467.203125 L 421.4375 432.664062 L 422.351562 422.394531 L 436.632812 262.363281 L 438.113281 246.039062 Z M 296.816406 123.007812 L 296.816406 183.789062 L 443.648438 183.789062 L 444.867188 170.132812 L 447.640625 139.3125 L 449.09375 123.007812 Z M 296.816406 123.007812 "/>
</g>
</svg>
