<?xml version="1.0" encoding="UTF-8"?>
<svg xmlns="http://www.w3.org/2000/svg" xmlns:xlink="http://www.w3.org/1999/xlink" width="595pt" height="842pt" viewBox="0 0 595 842" version="1.1">
<defs>
<clipPath id="clip1">
  <path d="M 9.75 9.75 L 584.308594 9.75 L 584.308594 831.539062 L 9.75 831.539062 Z M 9.75 9.75 "/>
</clipPath>
</defs>
<g id="surface1">
<g clip-path="url(#clip1)" clip-rule="nonzero">
<path style=" stroke:none;fill-rule:nonzero;fill:rgb(100%,100%,100%);fill-opacity:1;" d="M 9.75 9.75 L 584.308594 9.75 L 584.308594 831.539062 L 9.75 831.539062 Z M 9.75 9.75 "/>
</g>
<path style=" stroke:none;fill-rule:nonzero;fill:rgb(94.116211%,85.881042%,30.979919%);fill-opacity:1;" d="M 23.195312 18.777344 L 23.195312 570.867188 L 575.28125 570.867188 L 575.28125 18.777344 Z M 315.222656 489.214844 C 307.074219 505.773438 291.519531 516.652344 273.492188 521.902344 C 245.796875 528.261719 219.304688 524.636719 199.597656 512.808594 C 186.410156 504.71875 176.109375 492.261719 169.117188 477.914062 L 211.164062 452.164062 C 211.53125 452.316406 212.636719 454.3125 214.109375 456.894531 C 219.472656 465.875 224.097656 472.238281 233.1875 476.703125 C 242.117188 479.75 261.722656 481.695312 269.292969 465.984375 C 273.917969 457.988281 272.445312 432.292969 272.445312 403.863281 C 272.441406 359.1875 272.648438 314.695312 272.648438 270.53125 L 324.363281 270.53125 C 324.363281 319.113281 324.628906 365.125 324.363281 412.535156 C 324.476562 441.597656 326.996094 467.507812 315.222656 489.214844 Z M 529.761719 474.605469 C 511.785156 536.09375 411.558594 538.089844 371.507812 497.464844 C 363.046875 487.902344 357.742188 482.90625 352.695312 471.871094 C 373.976562 459.625 373.976562 459.625 394.6875 447.644531 C 405.9375 464.9375 416.339844 474.445312 435.050781 478.335938 C 460.441406 481.4375 485.980469 472.714844 480.253906 445.75 C 474.367188 423.726562 428.269531 418.371094 396.894531 394.820312 C 365.046875 373.429688 357.582031 321.453125 383.757812 291.757812 C 392.480469 280.773438 407.355469 272.574219 422.964844 268.636719 L 439.253906 266.527344 C 470.527344 265.898438 490.074219 274.15625 504.425781 290.179688 C 508.417969 294.226562 511.679688 298.589844 517.773438 308.046875 C 501.113281 318.664062 501.167969 318.5625 477.300781 334.011719 C 472.207031 323.03125 463.746094 316.140625 454.808594 313.148438 C 440.929688 308.941406 423.433594 313.511719 419.800781 328.175781 C 418.542969 332.695312 418.804688 336.898438 420.804688 344.363281 C 426.425781 357.1875 445.292969 362.757812 462.21875 370.539062 C 510.941406 390.296875 527.390625 411.484375 531.4375 436.703125 C 535.332031 458.417969 530.496094 472.5 529.761719 474.605469 Z M 529.761719 474.605469 "/>
</g>
</svg>
