<?xml version="1.0" encoding="UTF-8"?>
<svg xmlns="http://www.w3.org/2000/svg" xmlns:xlink="http://www.w3.org/1999/xlink" width="595pt" height="842pt" viewBox="0 0 595 842" version="1.1">
<defs>
<clipPath id="clip1">
  <path d="M 9.75 9.75 L 584.308594 9.75 L 584.308594 831.539062 L 9.75 831.539062 Z M 9.75 9.75 "/>
</clipPath>
</defs>
<g id="surface1">
<g clip-path="url(#clip1)" clip-rule="nonzero">
<path style=" stroke:none;fill-rule:nonzero;fill:rgb(100%,100%,100%);fill-opacity:1;" d="M 9.75 9.75 L 584.308594 9.75 L 584.308594 831.539062 L 9.75 831.539062 Z M 9.75 9.75 "/>
</g>
<path style=" stroke:none;fill-rule:evenodd;fill:rgb(26.274109%,59.999084%,20.391846%);fill-opacity:1;" d="M 403.199219 203.449219 C 410.289062 223.957031 415.394531 244.890625 417.070312 266.589844 C 419.15625 293.511719 418.203125 320.238281 412.527344 346.71875 C 412.371094 347.445312 412.046875 348.132812 411.800781 348.839844 C 410.023438 348.84375 408.207031 348.621094 406.46875 348.890625 C 391.765625 351.199219 377.074219 353.59375 362.382812 355.976562 C 347.199219 358.4375 331.992188 360.796875 316.835938 363.425781 C 311.464844 364.355469 304.816406 363.246094 302.648438 370.675781 C 302.585938 370.878906 301.96875 370.914062 301.609375 371.027344 L 302.34375 326.636719 C 302.089844 290.929688 301.84375 255.226562 301.597656 219.519531 L 308.671875 218.304688 C 320.246094 216.410156 331.816406 214.492188 343.398438 212.648438 C 357.214844 210.453125 371.050781 208.320312 384.878906 206.179688 C 390.976562 205.230469 397.085938 204.359375 403.199219 203.449219 Z M 403.199219 203.449219 "/>
<path style=" stroke:none;fill-rule:evenodd;fill:rgb(27.058411%,64.704895%,21.960449%);fill-opacity:1;" d="M 287 500.4375 C 279.535156 494.019531 271.8125 487.886719 264.65625 481.136719 C 226.15625 444.820312 197.992188 402.082031 184.125 350.550781 C 180.304688 336.371094 177.757812 321.957031 176.941406 307.304688 C 176.367188 297.046875 175.535156 286.699219 176.257812 276.496094 C 178.191406 249.359375 182.113281 222.484375 190.070312 196.347656 L 190.507812 195.738281 C 191.28125 196.765625 192.394531 197.675781 192.785156 198.835938 C 200.554688 221.714844 208.265625 244.613281 215.9375 267.523438 C 240.046875 339.515625 264.121094 411.523438 288.265625 483.5 C 288.738281 484.902344 289.964844 486.054688 290.84375 487.324219 Z M 287 500.4375 "/>
<path style=" stroke:none;fill-rule:evenodd;fill:rgb(27.450562%,62.744141%,21.568298%);fill-opacity:1;" d="M 403.199219 203.449219 C 397.085938 204.359375 390.972656 205.230469 384.875 206.167969 C 371.046875 208.3125 357.210938 210.445312 343.390625 212.640625 C 331.8125 214.480469 320.238281 216.402344 308.667969 218.296875 L 301.59375 219.511719 L 301.539062 214.898438 C 301.304688 211.101562 300.902344 207.3125 300.859375 203.519531 C 300.554688 179.324219 300.363281 155.128906 300.0625 130.933594 C 299.878906 115.789062 299.601562 100.648438 299.292969 85.507812 C 299.101562 76.101562 298.898438 66.691406 298.472656 57.296875 C 298.246094 52.246094 297.433594 47.226562 297.101562 42.175781 C 296.914062 39.273438 297.171875 36.351562 297.230469 33.4375 C 300.835938 40.429688 304.367188 47.472656 308.078125 54.410156 C 313.9375 65.382812 323.273438 73.464844 331.679688 82.285156 C 364.90625 117.140625 388.496094 157.667969 403.199219 203.449219 Z M 403.199219 203.449219 "/>
<path style=" stroke:none;fill-rule:evenodd;fill:rgb(25.097656%,58.03833%,19.999695%);fill-opacity:1;" d="M 301.605469 371.023438 C 301.964844 370.910156 302.585938 370.875 302.644531 370.667969 C 304.8125 363.242188 311.460938 364.347656 316.832031 363.421875 C 331.988281 360.796875 347.195312 358.429688 362.378906 355.972656 C 377.070312 353.589844 391.757812 351.195312 406.464844 348.886719 C 408.203125 348.613281 410.019531 348.839844 411.796875 348.832031 C 409.050781 358.640625 406.886719 368.65625 403.402344 378.191406 C 399.445312 389.007812 394.65625 399.5625 389.574219 409.914062 C 381.976562 425.382812 372.511719 439.8125 361.515625 453.03125 C 353.039062 463.226562 343.589844 472.648438 334.121094 481.953125 C 328.886719 487.097656 322.71875 491.289062 316.976562 495.914062 L 315.488281 494.898438 L 310.125 490.3125 L 304.578125 478.15625 C 300.757812 463.921875 298.753906 449.429688 298.421875 434.703125 L 298.523438 432.226562 L 299.277344 421.511719 C 299.53125 417.855469 299.867188 414.199219 300.019531 410.535156 C 300.589844 397.363281 301.085938 384.195312 301.605469 371.023438 Z M 301.605469 371.023438 "/>
<path style=" stroke:none;fill-rule:evenodd;fill:rgb(30.979919%,66.665649%,25.489807%);fill-opacity:1;" d="M 301.605469 371.023438 C 301.085938 384.195312 300.589844 397.363281 300.027344 410.539062 C 299.875 414.207031 299.539062 417.859375 299.285156 421.515625 L 295.90625 422.792969 C 288.402344 400.699219 280.894531 378.839844 273.550781 356.925781 C 261.40625 320.667969 249.40625 284.355469 237.277344 248.089844 C 227.484375 218.8125 217.613281 189.570312 207.683594 160.339844 C 207.21875 158.972656 205.886719 157.902344 204.960938 156.691406 L 226.582031 116.933594 C 227.324219 118.222656 228.304688 119.429688 228.773438 120.816406 C 238.777344 150.421875 248.765625 180.03125 258.667969 209.671875 C 271.546875 248.230469 284.34375 286.820312 297.214844 325.382812 C 297.726562 326.921875 298.574219 328.34375 299.382812 330.070312 L 302.34375 326.625 C 302.097656 341.425781 301.847656 356.222656 301.605469 371.023438 Z M 301.605469 371.023438 "/>
<path style=" stroke:none;fill-rule:evenodd;fill:rgb(29.019165%,65.489197%,23.529053%);fill-opacity:1;" d="M 204.964844 156.699219 C 205.890625 157.90625 207.21875 158.976562 207.6875 160.347656 C 217.617188 189.574219 227.488281 218.820312 237.28125 248.09375 C 249.410156 284.359375 261.410156 320.671875 273.554688 356.929688 C 280.894531 378.839844 288.402344 400.703125 295.914062 422.796875 L 299.292969 421.519531 L 298.535156 432.234375 L 297.851562 434.703125 C 296.675781 446.433594 295.6875 458.191406 294.257812 469.894531 C 293.535156 475.761719 292.007812 481.519531 290.847656 487.328125 C 289.972656 486.0625 288.746094 484.910156 288.273438 483.503906 C 264.125 411.523438 240.050781 339.519531 215.945312 267.527344 C 208.273438 244.617188 200.558594 221.71875 192.792969 198.84375 C 192.398438 197.679688 191.289062 196.769531 190.511719 195.742188 C 195.328125 182.726562 200.144531 169.710938 204.964844 156.699219 Z M 204.964844 156.699219 "/>
<path style=" stroke:none;fill-rule:evenodd;fill:rgb(34.117126%,68.234253%,27.842712%);fill-opacity:1;" d="M 302.339844 326.628906 L 299.378906 330.074219 C 298.570312 328.347656 297.722656 326.921875 297.210938 325.386719 C 284.34375 286.824219 271.542969 248.234375 258.660156 209.675781 C 248.757812 180.035156 238.773438 150.425781 228.769531 120.820312 C 228.304688 119.433594 227.324219 118.222656 226.578125 116.9375 L 253.320312 81.757812 C 254.164062 82.886719 255.367188 83.886719 255.804688 85.15625 C 263.230469 106.890625 270.585938 128.652344 277.902344 150.425781 C 284.734375 170.761719 291.464844 191.125 298.378906 211.433594 C 298.839844 212.792969 300.453125 213.757812 301.53125 214.90625 L 301.582031 219.519531 C 301.839844 255.21875 302.089844 290.925781 302.339844 326.628906 Z M 302.339844 326.628906 "/>
<path style=" stroke:none;fill-rule:evenodd;fill:rgb(37.646484%,69.802856%,30.979919%);fill-opacity:1;" d="M 301.539062 214.898438 C 300.460938 213.75 298.851562 212.785156 298.386719 211.425781 C 291.472656 191.117188 284.742188 170.75 277.910156 150.417969 C 270.597656 128.644531 263.238281 106.886719 255.8125 85.148438 C 255.375 83.878906 254.175781 82.875 253.332031 81.75 C 262.027344 73.234375 270.453125 64.414062 279.5 56.292969 C 287.542969 49.074219 294.007812 41.335938 294.304688 29.933594 C 294.316406 29.460938 294.566406 28.988281 294.945312 27.664062 L 297.238281 33.433594 C 297.179688 36.351562 296.917969 39.269531 297.109375 42.171875 C 297.441406 47.21875 298.253906 52.242188 298.484375 57.289062 C 298.90625 66.683594 299.109375 76.097656 299.300781 85.503906 C 299.605469 100.644531 299.882812 115.785156 300.074219 130.929688 C 300.367188 155.125 300.5625 179.320312 300.867188 203.515625 C 300.902344 207.316406 301.300781 211.101562 301.539062 214.898438 Z M 301.539062 214.898438 "/>
<path style=" stroke:none;fill-rule:evenodd;fill:rgb(66.273499%,66.665649%,53.33252%);fill-opacity:1;" d="M 290.835938 487.324219 C 292 481.515625 293.527344 475.753906 294.246094 469.890625 C 295.683594 458.191406 296.667969 446.429688 297.84375 434.699219 L 298.132812 434.65625 L 298.425781 434.703125 C 298.757812 449.429688 300.761719 463.921875 304.582031 478.15625 C 303.804688 479.179688 302.707031 480.09375 302.292969 481.25 C 299.082031 490.304688 296.058594 499.429688 292.828125 508.484375 C 292.386719 509.722656 291.160156 510.683594 290.292969 511.769531 L 286.996094 500.4375 Z M 290.835938 487.324219 "/>
<path style=" stroke:none;fill-rule:evenodd;fill:rgb(71.37146%,70.979309%,59.606934%);fill-opacity:1;" d="M 290.300781 511.773438 C 291.164062 510.6875 292.398438 509.726562 292.835938 508.488281 C 296.0625 499.433594 299.09375 490.3125 302.300781 481.253906 C 302.710938 480.097656 303.804688 479.183594 304.585938 478.160156 L 310.128906 490.324219 C 309.035156 491.878906 307.523438 493.277344 306.914062 495.007812 L 296.296875 526.1875 C 295.859375 527.4375 294.367188 528.320312 293.367188 529.375 Z M 290.300781 511.773438 "/>
<path style=" stroke:none;fill-rule:evenodd;fill:rgb(76.077271%,75.68512%,65.489197%);fill-opacity:1;" d="M 293.367188 529.371094 C 294.371094 528.320312 295.859375 527.433594 296.296875 526.183594 L 306.914062 495.003906 C 307.519531 493.277344 309.035156 491.875 310.128906 490.320312 L 315.496094 494.898438 C 312.902344 497.460938 311.464844 500.417969 312.328125 504.160156 L 310.699219 509.496094 C 309.957031 510.410156 308.882812 511.207031 308.519531 512.253906 C 304.8125 522.867188 301.273438 533.535156 297.542969 544.148438 C 297.070312 545.496094 295.757812 546.550781 294.832031 547.734375 C 294.347656 541.609375 293.859375 535.496094 293.367188 529.371094 Z M 293.367188 529.371094 "/>
<path style=" stroke:none;fill-rule:evenodd;fill:rgb(80.783081%,80.39093%,71.763611%);fill-opacity:1;" d="M 294.835938 547.734375 C 295.757812 546.546875 297.070312 545.492188 297.546875 544.148438 C 301.277344 533.539062 304.816406 522.871094 308.523438 512.253906 C 308.890625 511.210938 309.957031 510.410156 310.703125 509.496094 L 308.457031 533.988281 C 307.855469 534.679688 306.984375 535.285156 306.699219 536.09375 C 304.160156 543.222656 301.765625 550.402344 299.214844 557.53125 C 298.691406 559.003906 297.683594 560.300781 296.898438 561.675781 C 296.199219 560.761719 294.949219 559.878906 294.890625 558.921875 C 294.667969 555.210938 294.820312 551.46875 294.835938 547.734375 Z M 294.835938 547.734375 "/>
<path style=" stroke:none;fill-rule:evenodd;fill:rgb(85.881042%,85.488892%,78.038025%);fill-opacity:1;" d="M 296.894531 561.675781 C 297.679688 560.296875 298.6875 559 299.210938 557.53125 C 301.765625 550.40625 304.152344 543.226562 306.695312 536.09375 C 306.980469 535.285156 307.855469 534.683594 308.453125 533.988281 L 308.503906 550.0625 L 303.125 563.863281 Z M 296.894531 561.675781 "/>
<path style=" stroke:none;fill-rule:evenodd;fill:rgb(92.155457%,91.371155%,86.273193%);fill-opacity:1;" d="M 303.125 563.867188 L 308.503906 550.066406 L 309.613281 566.390625 Z M 303.125 563.867188 "/>
<path style=" stroke:none;fill-rule:evenodd;fill:rgb(80.783081%,80.39093%,71.763611%);fill-opacity:1;" d="M 312.328125 504.164062 C 311.464844 500.425781 312.898438 497.460938 315.496094 494.902344 L 316.984375 495.917969 Z M 312.328125 504.164062 "/>
<path style=" stroke:none;fill-rule:evenodd;fill:rgb(30.979919%,66.665649%,25.489807%);fill-opacity:1;" d="M 298.425781 434.707031 L 298.132812 434.660156 L 297.84375 434.703125 L 298.527344 432.234375 Z M 298.425781 434.707031 "/>
</g>
</svg>
