<?xml version="1.0" encoding="UTF-8"?>
<svg xmlns="http://www.w3.org/2000/svg" xmlns:xlink="http://www.w3.org/1999/xlink" width="595pt" height="842pt" viewBox="0 0 595 842" version="1.1">
<defs>
<clipPath id="clip1">
  <path d="M 9.75 9.75 L 584.308594 9.75 L 584.308594 831.539062 L 9.75 831.539062 Z M 9.75 9.75 "/>
</clipPath>
</defs>
<g id="surface1">
<g clip-path="url(#clip1)" clip-rule="nonzero">
<path style=" stroke:none;fill-rule:nonzero;fill:rgb(100%,100%,100%);fill-opacity:1;" d="M 9.75 9.75 L 584.308594 9.75 L 584.308594 831.539062 L 9.75 831.539062 Z M 9.75 9.75 "/>
</g>
<path style=" stroke:none;fill-rule:evenodd;fill:rgb(19.999695%,40.391541%,56.861877%);fill-opacity:1;" d="M 558.753906 353.492188 C 556.769531 340.605469 545.941406 332.164062 533.351562 331.59375 C 528.792969 331.386719 524.164062 331.863281 519.621094 332.441406 C 514.128906 333.140625 508.707031 334.378906 503.230469 335.195312 C 499.445312 335.761719 495.605469 336.019531 491.824219 336.410156 L 491.730469 335.917969 C 498.789062 322.589844 506.144531 309.40625 512.820312 295.886719 C 517.941406 285.515625 522.320312 274.769531 526.847656 264.113281 C 534.339844 246.453125 540.324219 228.25 545.28125 209.746094 C 550.027344 192.03125 554.089844 174.121094 555.367188 155.742188 C 555.878906 148.402344 556.234375 141.03125 556.195312 133.683594 C 556.160156 127.820312 555.527344 121.953125 554.941406 116.109375 C 554.277344 109.414062 552.253906 103.066406 549.453125 96.957031 C 545.761719 88.910156 540.039062 82.308594 534.011719 76.035156 C 529.191406 71.011719 523.886719 66.4375 518.625 61.867188 C 511.125 55.34375 502.695312 50.136719 493.9375 45.511719 C 483.984375 40.253906 473.527344 36.144531 462.621094 33.367188 C 456.027344 31.683594 449.28125 30.433594 442.605469 29.097656 C 440.203125 28.613281 437.796875 27.609375 435.390625 27.609375 L 390.160156 27.609375 C 388.527344 27.609375 386.90625 28.453125 385.257812 28.640625 C 374.429688 29.84375 363.726562 31.886719 353.335938 35.105469 C 349.449219 36.3125 345.898438 35.550781 342.203125 35.210938 C 339.375 34.949219 336.589844 34.191406 333.757812 34.050781 C 322.972656 33.511719 312.175781 32.71875 301.394531 32.835938 C 291.0625 32.941406 280.839844 34.640625 270.839844 37.480469 C 262.46875 39.859375 254.28125 42.761719 246.78125 47.160156 C 243.570312 49.039062 241.027344 48.6875 237.703125 47.730469 C 226.542969 44.507812 215.304688 41.484375 203.964844 38.945312 C 196.898438 37.363281 189.632812 36.578125 182.417969 35.820312 C 175.5 35.101562 168.53125 34.667969 161.578125 34.523438 C 154.785156 34.375 147.945312 34.382812 141.183594 34.980469 C 130.410156 35.941406 119.839844 38.132812 109.566406 41.664062 C 98.160156 45.585938 87.699219 51.269531 78.269531 58.734375 C 68.699219 66.308594 61.023438 75.558594 54.847656 86.117188 C 48.34375 97.261719 43.882812 109.191406 41.109375 121.722656 C 39.605469 128.511719 38.65625 135.488281 37.628906 142.382812 C 37.304688 144.53125 40.859375 146.675781 36.445312 148.8125 L 36.445312 178.820312 C 40.859375 180.816406 37.363281 182.808594 37.617188 184.808594 C 38.234375 189.621094 38.777344 194.46875 39.589844 199.242188 C 40.875 206.800781 42.398438 214.335938 43.953125 221.84375 C 46.121094 232.332031 48.378906 242.816406 50.78125 253.25 C 52.53125 260.847656 54.523438 268.402344 56.605469 275.914062 C 59.789062 287.386719 62.925781 298.886719 66.527344 310.230469 C 69.871094 320.773438 73.699219 331.167969 77.496094 341.558594 C 82.757812 355.9375 89.054688 369.847656 96.609375 383.183594 C 103.140625 394.726562 110.605469 405.539062 120.617188 414.433594 C 127.214844 420.296875 134.5625 424.800781 143.113281 427.054688 C 149.828125 428.820312 156.65625 429.03125 163.535156 427.625 C 171.507812 425.988281 178.566406 422.558594 184.839844 417.417969 C 185.5625 416.824219 186.351562 416.375 187.203125 417.460938 C 190.449219 421.574219 194.796875 424.316406 199.339844 426.6875 C 211.605469 433.082031 224.972656 435 238.546875 435.78125 C 241.835938 435.972656 245.15625 435.5 248.46875 435.40625 C 254.921875 435.230469 261.191406 433.96875 267.363281 432.1875 C 270.597656 431.25 273.753906 430.0625 277.042969 428.953125 C 277.214844 432.457031 277.4375 435.828125 277.539062 439.203125 L 278 457.605469 C 278.082031 460.402344 278.191406 463.214844 278.453125 466 C 279.121094 473.1875 279.773438 480.375 280.628906 487.539062 C 281.226562 492.476562 281.84375 497.457031 283.007812 502.273438 C 285.34375 512.003906 288.511719 521.480469 292.539062 530.664062 C 296.492188 539.679688 302.175781 547.289062 309.761719 553.566406 C 319.570312 561.675781 331.0625 565.132812 343.472656 565.773438 C 348.605469 566.042969 353.882812 565.792969 358.933594 564.871094 C 366.941406 563.417969 374.933594 561.589844 382.726562 559.242188 C 398.589844 554.453125 412.296875 546.1875 422.539062 532.824219 C 428.371094 525.210938 433.15625 516.972656 436.230469 507.878906 C 438.765625 500.367188 441.15625 492.777344 443.054688 485.089844 C 444.558594 479.03125 445.300781 472.78125 446.214844 466.59375 C 446.820312 462.496094 447.179688 458.363281 447.558594 454.238281 C 448.179688 447.539062 448.808594 440.84375 449.257812 434.128906 C 449.566406 429.457031 449.550781 424.761719 449.738281 420.078125 C 449.796875 418.652344 450.023438 417.234375 450.15625 415.8125 C 450.28125 414.496094 450.945312 414.042969 452.285156 414.0625 C 457.015625 414.132812 461.753906 414.257812 466.472656 414.046875 C 471.757812 413.808594 477.09375 413.582031 482.296875 412.707031 C 489.703125 411.46875 497.078125 409.898438 504.335938 407.996094 C 512.917969 405.75 520.789062 401.734375 528.363281 397.152344 C 537.1875 391.820312 545.230469 385.566406 551.757812 377.511719 C 557.433594 370.484375 560.125 362.363281 558.753906 353.492188 Z M 543.6875 357.832031 C 543.394531 361.871094 541.542969 365.335938 538.859375 368.292969 C 526.1875 382.265625 510.292969 390.738281 492.105469 394.914062 C 485.199219 396.496094 478.070312 397.316406 471 397.96875 C 464.980469 398.527344 458.871094 398.617188 452.828125 398.398438 C 448.386719 398.230469 443.976562 397.214844 439.4375 396.5625 C 438.984375 400.710938 438.550781 405.035156 438.023438 409.351562 L 435.910156 425.890625 C 435.269531 431.132812 434.769531 436.394531 434.113281 441.632812 C 433.464844 446.71875 432.664062 451.78125 431.988281 456.867188 C 431.355469 461.601562 430.890625 466.359375 430.191406 471.082031 C 429.109375 478.328125 428.074219 485.589844 426.660156 492.773438 C 424.964844 501.363281 422.363281 509.6875 418.117188 517.433594 C 412.941406 526.890625 405.601562 534.09375 396.261719 539.429688 C 386.632812 544.929688 376.105469 547.792969 365.4375 550.1875 C 357.882812 551.882812 350.101562 552.160156 342.453125 551.472656 C 329.183594 550.269531 317.859375 544.59375 309.300781 534.308594 C 301.128906 524.492188 295.597656 513.238281 293.621094 500.5 C 292.675781 494.445312 291.996094 488.335938 291.453125 482.230469 C 290.851562 475.441406 290.441406 468.632812 290.132812 461.828125 C 289.738281 453.183594 289.449219 444.539062 289.261719 435.894531 C 289.027344 425.269531 288.953125 414.644531 288.800781 404.015625 L 288.773438 403.609375 C 283.371094 406.851562 278.054688 410.402344 272.421875 413.328125 C 265.820312 416.753906 258.652344 418.742188 251.230469 419.300781 C 245.40625 419.742188 239.511719 420.144531 233.714844 419.683594 C 224.214844 418.917969 214.722656 417.429688 206.21875 412.753906 C 202.769531 410.851562 199.167969 408.542969 196.792969 405.507812 C 191.09375 398.238281 193.824219 389.050781 202.414062 384.632812 C 208.351562 381.570312 214.832031 380.292969 221.265625 378.804688 C 226.855469 377.511719 232.421875 376.039062 237.878906 374.261719 C 243.273438 372.492188 246.679688 368.117188 250.039062 363.824219 L 255.367188 356.972656 C 253.144531 356.738281 251.050781 356.5 248.957031 356.308594 C 242.601562 355.707031 236.539062 353.957031 230.738281 351.386719 C 225.773438 349.191406 225.699219 348.953125 222.0625 352.902344 C 215.984375 359.5 210.074219 366.253906 204.121094 372.960938 C 199.738281 377.894531 195.382812 382.859375 191.023438 387.808594 C 186.703125 392.699219 182.660156 397.871094 178.007812 402.425781 C 171.101562 409.1875 162.773438 413.253906 152.84375 412.796875 C 146.46875 412.503906 140.632812 410.269531 135.386719 406.617188 C 124.558594 399.074219 117.261719 388.523438 110.617188 377.441406 C 102.105469 363.242188 95.574219 348.113281 89.984375 332.570312 C 86.113281 321.828125 82.226562 311.078125 78.847656 300.183594 C 75.179688 288.34375 71.957031 276.351562 68.792969 264.363281 C 66.398438 255.320312 64.273438 246.199219 62.246094 237.058594 C 59.945312 226.667969 57.734375 216.257812 55.78125 205.792969 C 54.464844 198.730469 53.699219 191.566406 52.636719 184.457031 C 51.199219 174.871094 50.933594 165.199219 51.457031 155.574219 C 51.921875 146.90625 53.164062 138.257812 54.402344 129.644531 C 56.117188 117.730469 60.042969 106.484375 65.691406 95.867188 C 69.148438 89.359375 73.441406 83.445312 78.40625 77.953125 C 86.554688 68.933594 96.417969 62.414062 107.390625 57.519531 C 115.058594 54.101562 123.15625 52.042969 131.414062 50.4375 C 143.664062 48.050781 156.027344 48.144531 168.394531 48.398438 C 173.800781 48.511719 179.183594 49.496094 184.585938 50.03125 C 196.214844 51.1875 207.613281 53.632812 218.867188 56.65625 C 227.070312 58.855469 235.101562 61.703125 243.238281 64.175781 C 244.054688 64.421875 245.253906 64.402344 245.917969 63.964844 C 256.945312 56.769531 268.992188 52.023438 281.804688 49.304688 C 286.667969 48.277344 291.6875 47.824219 296.660156 47.507812 C 302.707031 47.125 308.800781 46.769531 314.832031 47.117188 C 322.085938 47.535156 329.304688 48.601562 336.511719 49.59375 C 340.007812 50.070312 343.421875 51.285156 346.929688 51.613281 C 348.609375 51.773438 350.386719 50.546875 352.164062 50.136719 C 361.214844 48.046875 370.222656 45.71875 379.351562 44.066406 C 386.152344 42.839844 393.09375 42.261719 400.003906 41.863281 C 407.714844 41.421875 415.476562 41.097656 423.179688 41.46875 C 432.917969 41.9375 442.585938 43.324219 452.132812 45.546875 C 463.957031 48.296875 475.296875 52.296875 486.078125 57.84375 C 494.132812 61.984375 501.792969 66.792969 508.6875 72.699219 C 513.207031 76.578125 517.832031 80.40625 521.910156 84.726562 C 526.945312 90.054688 532.082031 95.386719 535.242188 102.207031 C 537.617188 107.355469 539.3125 112.679688 539.78125 118.316406 C 540.363281 125.320312 541.070312 132.351562 541.003906 139.367188 C 540.941406 146.074219 540.027344 152.78125 539.378906 159.472656 C 537.90625 174.726562 534.585938 189.652344 530.558594 204.375 C 527.230469 216.539062 523.339844 228.570312 519.125 240.460938 C 515.242188 251.417969 510.765625 262.175781 506.238281 272.890625 C 502.894531 280.816406 499.292969 288.65625 495.378906 296.3125 C 487.972656 310.828125 480.269531 325.191406 471.363281 338.859375 C 469.824219 341.222656 468.367188 343.644531 466.867188 346.054688 C 470.753906 348.679688 475.15625 349.601562 479.589844 350.078125 C 483.808594 350.539062 488.109375 350.8125 492.324219 350.5 C 499.066406 350 505.789062 349.035156 512.496094 348.097656 C 519.136719 347.167969 525.648438 345.277344 532.46875 345.777344 C 539.277344 346.273438 544.148438 351.449219 543.6875 357.832031 Z M 446.460938 343.019531 C 443.566406 339.285156 440.617188 335.59375 437.785156 331.8125 C 433.34375 325.875 430.148438 319.246094 426.941406 312.585938 C 423.90625 306.273438 420.175781 300.296875 416.976562 294.058594 C 411.386719 283.171875 405.699219 272.320312 400.554688 261.21875 C 394.082031 247.277344 388.980469 232.835938 387.375 217.390625 C 386.695312 210.855469 386.519531 204.328125 387.84375 197.851562 C 389.957031 187.511719 395.359375 179.425781 404.441406 173.878906 C 412.863281 168.734375 422.25 167.074219 431.863281 166.550781 C 437.832031 166.230469 443.824219 166.492188 450.015625 166.492188 L 449.808594 165.445312 C 445.957031 157.394531 442.359375 149.207031 438.144531 141.34375 C 432.199219 130.25 424.59375 120.246094 416.121094 110.972656 C 409.847656 104.105469 403.046875 97.730469 395.601562 92.097656 C 388.28125 86.554688 380.5625 81.605469 372.332031 77.554688 C 362.511719 72.726562 352.289062 68.996094 341.558594 66.613281 C 331.25 64.328125 320.875 62.925781 310.300781 62.8125 C 301.285156 62.714844 292.320312 63.121094 283.535156 65.15625 C 270.277344 68.226562 258.148438 73.6875 247.597656 82.527344 C 241.707031 87.464844 236.566406 93.007812 232.066406 99.179688 C 226.78125 106.4375 222.519531 114.269531 218.875 122.484375 C 213.875 133.757812 210.445312 145.488281 208.097656 157.546875 C 206.925781 163.558594 206.007812 169.621094 205.070312 175.679688 C 204.742188 177.800781 204.714844 179.96875 204.527344 182.398438 C 206.15625 181.550781 207.332031 180.898438 208.53125 180.3125 L 212.441406 178.558594 C 225.660156 172.515625 239.355469 168.621094 254.078125 169.070312 C 260.332031 169.257812 266.316406 170.496094 271.875 173.234375 C 282.542969 178.496094 288.785156 187.4375 291.496094 198.757812 C 293.367188 206.570312 294.648438 214.539062 295.894531 222.484375 C 296.871094 228.691406 297.871094 234.960938 297.984375 241.21875 C 298.148438 250.367188 297.683594 259.53125 297.183594 268.675781 C 296.761719 276.464844 295.136719 284.132812 292.414062 291.402344 C 287.46875 304.621094 281.957031 317.625 276.804688 330.769531 C 275.105469 335.109375 273.796875 339.605469 272.191406 344.382812 C 274.671875 344.382812 276.6875 344.363281 278.699219 344.390625 C 279.488281 344.402344 280.289062 344.425781 281.050781 344.605469 C 286.96875 346.003906 292.101562 348.683594 296.308594 353.238281 C 301.921875 359.296875 304.871094 366.367188 305.019531 374.550781 C 305.105469 379.089844 304.625 383.636719 304.648438 388.171875 C 304.742188 409.3125 304.902344 430.449219 305.078125 451.585938 C 305.109375 455.039062 305.28125 458.496094 305.527344 461.945312 C 306.042969 469.167969 306.566406 476.394531 307.273438 483.597656 C 307.765625 488.707031 308.457031 493.808594 309.265625 498.882812 C 310.410156 506.074219 313.679688 512.472656 317.394531 518.589844 C 320.59375 523.851562 324.75 528.320312 330.226562 531.402344 C 339.53125 536.640625 349.554688 537.078125 359.65625 535.148438 C 366.476562 533.84375 373.179688 531.75 379.804688 529.59375 C 386.335938 527.46875 392.238281 523.988281 397.191406 519.195312 C 401.835938 514.695312 405.128906 509.207031 407.351562 503.152344 C 411.660156 491.410156 413.003906 479.042969 414.789062 466.773438 C 415.457031 462.179688 416.035156 457.574219 416.644531 452.972656 C 417.335938 447.734375 418.039062 442.5 418.710938 437.265625 C 419.207031 433.363281 419.65625 429.457031 420.132812 425.554688 C 420.8125 419.957031 421.53125 414.359375 422.183594 408.753906 C 422.679688 404.421875 423.105469 400.070312 423.546875 395.730469 C 424.117188 390.183594 424.730469 384.636719 425.21875 379.078125 C 425.601562 374.863281 425.445312 370.566406 426.191406 366.429688 C 427.566406 358.84375 431.152344 352.382812 437.878906 348.210938 C 440.691406 346.464844 443.867188 345.316406 446.992188 343.84375 Z M 192.070312 311.875 C 188.710938 303.914062 186.691406 295.621094 186.089844 287.042969 C 185.527344 278.984375 186.484375 270.953125 187.308594 262.929688 C 188.113281 255.15625 188.78125 247.347656 189.015625 239.539062 C 189.402344 226.703125 188.539062 213.886719 187.925781 201.058594 C 187.554688 193.421875 188.441406 185.695312 189.121094 178.039062 C 189.734375 171.144531 190.5 164.234375 191.800781 157.441406 C 193.988281 146.039062 196.890625 134.804688 201.015625 123.914062 C 204.933594 113.585938 209.433594 103.53125 215.789062 94.476562 C 220.144531 88.265625 225.085938 82.460938 229.835938 76.394531 L 228.425781 75.894531 C 212.976562 70.988281 197.273438 67.152344 181.125 65.480469 C 173.488281 64.6875 165.828125 64.226562 158.167969 63.769531 C 155.820312 63.628906 153.433594 63.945312 151.074219 64.171875 C 145.238281 64.726562 139.328125 64.949219 133.582031 66.042969 C 123.800781 67.902344 114.421875 71.03125 105.734375 76.125 C 97.933594 80.695312 91.382812 86.605469 85.898438 93.691406 C 79.839844 101.519531 75.761719 110.371094 72.832031 119.808594 C 69.375 130.945312 67.726562 142.402344 67.28125 153.964844 C 66.894531 164.101562 66.699219 174.292969 68.449219 184.390625 C 69.75 191.90625 70.621094 199.503906 72.054688 206.992188 C 74.011719 217.199219 76.109375 227.382812 78.535156 237.484375 C 82.003906 251.945312 85.464844 266.425781 89.574219 280.710938 C 93.503906 294.398438 97.9375 307.960938 102.742188 321.363281 C 106.675781 332.296875 111.21875 343.03125 116.007812 353.621094 C 119.125 360.519531 122.902344 367.160156 126.859375 373.621094 C 131.066406 380.480469 135.855469 386.988281 142.351562 391.96875 C 150.550781 398.253906 156.898438 399.226562 165.226562 392.332031 C 168.796875 389.378906 171.8125 385.730469 174.917969 382.253906 C 179.851562 376.734375 184.613281 371.0625 189.523438 365.523438 C 195.777344 358.464844 202.109375 351.484375 208.394531 344.460938 C 209.726562 342.976562 211 341.449219 212.296875 339.945312 L 210.15625 338.070312 C 202.34375 330.566406 196.292969 321.863281 192.070312 311.875 Z M 429.195312 101.777344 C 434.300781 107.765625 439.242188 113.929688 443.8125 120.34375 C 452.644531 132.75 459.703125 146.144531 464.902344 160.476562 C 467.203125 166.792969 469.039062 173.171875 468.21875 180.085938 C 467.648438 184.925781 467.695312 189.835938 467.269531 194.703125 C 466.910156 198.753906 466.269531 202.78125 465.742188 206.820312 C 464.957031 212.90625 463.820312 218.972656 463.476562 225.085938 C 463.15625 230.902344 463.492188 236.78125 463.859375 242.613281 C 464.230469 248.535156 465.027344 254.429688 465.570312 260.34375 C 466.1875 267.050781 467.011719 273.753906 467.203125 280.472656 C 467.355469 285.988281 466.867188 291.539062 466.382812 297.046875 C 465.808594 303.679688 464.128906 310.101562 461.617188 316.265625 C 459.855469 320.601562 457.75 324.808594 455.757812 329.148438 L 456.558594 329.996094 L 457.773438 330.9375 L 458.996094 328.746094 C 469.324219 312.457031 478.515625 295.542969 486.476562 277.984375 C 491.59375 266.679688 496.390625 255.210938 500.992188 243.683594 C 508.167969 225.734375 513.84375 207.28125 518.230469 188.460938 C 520.203125 180.011719 521.707031 171.4375 523.046875 162.859375 C 524.089844 156.15625 524.957031 149.371094 525.152344 142.605469 C 525.359375 135.425781 524.964844 128.191406 524.300781 121.03125 C 523.804688 115.625 522.472656 110.183594 519.085938 105.789062 C 513.640625 98.714844 507.761719 91.949219 500.53125 86.59375 C 494.445312 82.085938 488.378906 77.460938 481.847656 73.667969 C 471.488281 67.660156 460.28125 63.660156 448.566406 60.933594 C 437.136719 58.269531 425.554688 57.121094 413.902344 56.878906 C 407.027344 56.734375 400.125 57.472656 393.265625 58.117188 C 387.050781 58.699219 380.875 59.695312 374.617188 60.515625 C 381.332031 64.292969 387.953125 67.648438 394.199219 71.605469 C 407.328125 79.921875 419.09375 89.929688 429.195312 101.777344 Z M 258.601562 334.632812 C 262.84375 321.0625 268.625 308.101562 274.226562 295.066406 C 278.765625 284.492188 281.25 273.351562 282.074219 261.914062 C 282.484375 256.273438 282.371094 250.5625 282.09375 244.902344 C 281.777344 238.617188 281.277344 232.316406 280.363281 226.09375 C 279.1875 218.136719 277.847656 210.179688 275.964844 202.371094 C 273.925781 193.921875 268.78125 188.039062 259.964844 185.871094 C 254.59375 184.550781 249.257812 184.601562 243.832031 185.460938 C 230.570312 187.546875 218.433594 192.433594 207.128906 199.589844 C 204.851562 201.027344 203.601562 202.191406 203.996094 205.453125 C 204.828125 212.367188 205.007812 219.386719 204.976562 226.367188 C 204.933594 236.242188 204.511719 246.117188 204.136719 255.988281 C 204.015625 259.207031 203.550781 262.402344 203.207031 265.605469 C 202.675781 270.507812 201.65625 275.40625 201.6875 280.300781 C 201.71875 285.34375 202.234375 290.507812 203.457031 295.390625 C 207.34375 310.878906 215.578125 323.558594 229.070312 332.5 C 237.367188 338 246.550781 340.773438 256.628906 341.296875 C 257.316406 338.984375 257.925781 336.796875 258.601562 334.632812 Z M 242.761719 201.75 C 240.984375 198.019531 242.003906 194.933594 246.117188 193.503906 C 247.121094 193.148438 248.15625 192.773438 249.195312 192.671875 C 250.628906 192.53125 252.085938 192.636719 253.535156 192.636719 C 258.753906 192.664062 263.777344 193.390625 268.085938 196.714844 C 270.851562 198.84375 271.59375 201.667969 269.804688 204.570312 C 267.265625 208.6875 263.390625 210.753906 258.636719 211.152344 C 251.140625 211.773438 245.878906 208.28125 242.761719 201.75 Z M 450.523438 200.386719 C 451.125 195.421875 451.605469 190.445312 452.21875 185.480469 C 452.46875 183.484375 451.417969 182.945312 449.742188 182.898438 C 444.476562 182.75 439.210938 182.566406 433.949219 182.46875 C 428.011719 182.363281 422.234375 183.316406 416.742188 185.574219 C 410.644531 188.082031 406.003906 192.101562 404.109375 198.734375 C 402.695312 203.683594 402.316406 208.625 402.816406 213.796875 C 403.574219 221.679688 405.324219 229.332031 408.082031 236.65625 C 411.765625 246.46875 415.625 256.273438 420.230469 265.671875 C 426.46875 278.394531 433.53125 290.714844 440.164062 303.246094 C 441.933594 306.585938 443.421875 310.078125 445.269531 313.980469 C 449.132812 305.796875 451.019531 297.605469 451.234375 289.152344 C 451.417969 282.039062 450.847656 274.898438 450.429688 267.78125 C 450.171875 263.425781 449.558594 259.097656 449.132812 254.753906 C 448.539062 248.699219 447.644531 242.648438 447.507812 236.578125 C 447.371094 230.410156 447.808594 224.203125 448.335938 218.042969 C 448.835938 212.132812 449.8125 206.269531 450.523438 200.386719 Z M 438.648438 195.609375 C 436.691406 201.011719 432.507812 204.058594 427.085938 204.953125 C 422.027344 205.785156 417.597656 203.917969 414.300781 199.882812 C 411.957031 197.011719 412.855469 193.613281 416.371094 191.671875 C 420.40625 189.4375 424.84375 188.875 430.078125 188.535156 C 431.5 188.792969 433.644531 189.011719 435.679688 189.59375 C 438.632812 190.429688 439.726562 192.648438 438.648438 195.609375 Z M 282.199219 361.941406 C 279.304688 359.578125 275.480469 359.441406 272.730469 362.035156 C 269.316406 365.257812 266.3125 368.949219 263.308594 372.582031 C 259.839844 376.78125 256.589844 381.152344 252.117188 384.40625 C 245.605469 389.136719 238.019531 391.097656 230.390625 392.953125 C 224.328125 394.425781 218.234375 395.796875 212.152344 397.214844 L 212.078125 398 C 213.886719 398.835938 215.632812 399.878906 217.515625 400.472656 C 226.789062 403.410156 236.226562 404.871094 246.027344 404.042969 C 253.101562 403.441406 259.839844 401.902344 266.226562 398.871094 C 275.015625 394.707031 281.777344 388.105469 287.53125 380.429688 C 288.492188 379.148438 288.929688 377.253906 289.042969 375.601562 C 289.4375 369.769531 286.472656 365.429688 282.199219 361.941406 Z M 510.769531 364.265625 C 503.304688 365.066406 495.832031 365.914062 488.34375 366.339844 C 484.730469 366.550781 481.066406 365.859375 477.417969 365.5625 C 471.300781 365.070312 465.328125 363.710938 460.15625 360.441406 C 457.164062 358.554688 454.675781 358.34375 451.496094 359.410156 C 446.957031 360.941406 443.25 363.261719 442.15625 368.183594 C 441.40625 371.507812 441.136719 374.953125 440.839844 378.359375 C 440.78125 378.960938 441.53125 380.0625 442.105469 380.214844 C 445.609375 381.136719 449.128906 382.226562 452.710938 382.550781 C 457.109375 382.949219 461.589844 382.820312 466.019531 382.597656 C 470.800781 382.359375 475.617188 382.050781 480.328125 381.257812 C 491.4375 379.394531 502.183594 376.355469 511.726562 370.054688 C 515.167969 367.78125 518.578125 365.457031 521.996094 363.15625 L 521.710938 362.671875 C 518.066406 363.214844 514.433594 363.875 510.769531 364.265625 Z M 510.769531 364.265625 "/>
</g>
</svg>
