<?xml version="1.0" encoding="UTF-8"?>
<svg xmlns="http://www.w3.org/2000/svg" xmlns:xlink="http://www.w3.org/1999/xlink" width="595pt" height="842pt" viewBox="0 0 595 842" version="1.1">
<defs>
<clipPath id="clip1">
  <path d="M 9.75 9.75 L 584.308594 9.75 L 584.308594 831.539062 L 9.75 831.539062 Z M 9.75 9.75 "/>
</clipPath>
</defs>
<g id="surface1">
<g clip-path="url(#clip1)" clip-rule="nonzero">
<path style=" stroke:none;fill-rule:nonzero;fill:rgb(100%,100%,100%);fill-opacity:1;" d="M 9.75 9.75 L 584.308594 9.75 L 584.308594 831.539062 L 9.75 831.539062 Z M 9.75 9.75 "/>
</g>
<path style=" stroke:none;fill-rule:evenodd;fill:rgb(65.097046%,17.254639%,27.450562%);fill-opacity:1;" d="M 498.792969 79.449219 C 444.882812 52.847656 389.667969 50.140625 333.132812 70.125 C 281.109375 88.515625 239.609375 121.425781 208.757812 166.246094 C 156.554688 242.089844 118.640625 324.847656 97.390625 414.746094 C 86.507812 460.753906 79.457031 509.554688 81.351562 557.070312 C 81.507812 560.925781 82.082031 562.03125 82.460938 570.867188 L 349.082031 570.867188 C 348.316406 562.03125 347.8125 564.613281 347.152344 562.929688 C 333.128906 527.128906 322.023438 489.320312 314.34375 451.636719 C 303.3125 397.527344 297.535156 342.417969 308.929688 287.808594 C 324.878906 211.339844 368.464844 156.167969 441.945312 127.554688 C 483.570312 111.359375 523.078125 115.96875 557.726562 146.378906 C 558.042969 146.660156 558.699219 146.492188 559.546875 146.628906 L 570.875 129.476562 C 549.054688 108.707031 525.082031 92.425781 498.792969 79.449219 Z M 29.09375 431.273438 C 27.0625 448.597656 25.164062 464.820312 23.175781 481.847656 L 72.34375 487.75 L 81.347656 435.21875 C 63.4375 433.863281 46.429688 432.578125 29.09375 431.273438 Z M 125.601562 280.28125 L 79.351562 262.1875 L 64.40625 304.617188 L 111.535156 319.722656 C 116.308594 306.335938 120.792969 293.742188 125.601562 280.28125 Z M 343.871094 517.277344 C 359.660156 518.453125 375.480469 519.261719 392.90625 520.277344 C 386.578125 507.121094 380.957031 495.222656 375.070312 483.464844 C 374.425781 482.1875 372.246094 480.957031 370.765625 480.933594 C 357.371094 480.738281 343.964844 480.824219 329.730469 480.824219 C 332.9375 492.429688 335.726562 503.140625 338.988281 513.695312 C 339.480469 515.289062 342.113281 517.148438 343.871094 517.277344 Z M 203.984375 151.734375 L 168.847656 128.464844 C 159.433594 138.992188 150.351562 149.136719 140.761719 159.847656 L 176.882812 184.121094 Z M 315.875 387.449219 C 315.820312 388.867188 317.09375 391.125 318.339844 391.683594 C 330.996094 397.375 343.78125 402.792969 357.703125 408.789062 C 357.125 397.785156 356.734375 388.585938 356.078125 379.402344 C 355.957031 377.75 355.179688 375.375 353.957031 374.695312 C 342.335938 368.261719 330.554688 362.117188 317.667969 355.28125 C 316.96875 367.050781 316.25 377.242188 315.875 387.449219 Z M 305.464844 68.6875 L 281.414062 41.386719 L 248.292969 58.601562 C 256.578125 68.699219 264.398438 78.226562 272.382812 87.945312 Z M 320.550781 285.882812 C 319.828125 287.535156 320.777344 291.035156 322.195312 292.3125 C 331.804688 300.980469 341.734375 309.273438 352.785156 318.730469 C 355.316406 308.128906 357.703125 298.683594 359.726562 289.167969 C 360.082031 287.476562 359.582031 284.679688 358.410156 283.734375 C 349.8125 276.804688 340.941406 270.207031 331.746094 263.195312 C 327.703125 271.210938 323.785156 278.398438 320.550781 285.882812 Z M 375.535156 54.339844 C 387.816406 54.671875 400.105469 54.527344 413.074219 54.527344 C 411.78125 45.5 411.164062 38.65625 409.621094 32.035156 C 409.160156 30.066406 406.199219 27.441406 404.195312 27.273438 C 391.886719 26.277344 379.53125 25.890625 365.988281 25.246094 C 367.792969 34.359375 369.171875 42.390625 371.121094 50.28125 C 371.53125 51.957031 373.976562 54.296875 375.539062 54.339844 Z M 390.488281 211.90625 C 391.113281 210.730469 391.273438 208.597656 390.617188 207.574219 C 384.582031 198.136719 378.316406 188.84375 371.828125 179.0625 L 350.804688 198.375 L 379.875 230.589844 C 383.777344 223.792969 387.273438 217.921875 390.488281 211.90625 Z M 413.167969 147.746094 L 425.722656 171.070312 C 445.375 160.300781 447.253906 156.40625 440.300781 140.886719 Z M 507.1875 75.871094 C 515.363281 80.914062 523.996094 85.214844 532.769531 89.9375 L 538.640625 80.796875 C 527.945312 72.972656 517.617188 65.410156 505.902344 56.832031 C 505.441406 61.707031 504.757812 65.113281 504.933594 68.476562 C 505.074219 71.042969 505.503906 74.839844 507.1875 75.871094 Z M 495.78125 149.714844 C 504.617188 150.671875 517.867188 151.585938 526.699219 152.554688 L 526.699219 140.550781 C 517.867188 138.617188 504.617188 136.699219 495.78125 134.707031 Z M 495.78125 149.714844 "/>
</g>
</svg>
