<?xml version="1.0" encoding="UTF-8"?>
<svg xmlns="http://www.w3.org/2000/svg" xmlns:xlink="http://www.w3.org/1999/xlink" width="595pt" height="842pt" viewBox="0 0 595 842" version="1.1">
<defs>
<clipPath id="clip1">
  <path d="M 9.75 9.75 L 584.308594 9.75 L 584.308594 831.539062 L 9.75 831.539062 Z M 9.75 9.75 "/>
</clipPath>
</defs>
<g id="surface1">
<g clip-path="url(#clip1)" clip-rule="nonzero">
<path style=" stroke:none;fill-rule:nonzero;fill:rgb(100%,100%,100%);fill-opacity:1;" d="M 9.75 9.75 L 584.308594 9.75 L 584.308594 831.539062 L 9.75 831.539062 Z M 9.75 9.75 "/>
</g>
<path style=" stroke:none;fill-rule:evenodd;fill:rgb(79.606628%,39.99939%,59.999084%);fill-opacity:1;" d="M 19.746094 262.386719 C 19.746094 265.492188 20.660156 267.539062 21.171875 269.53125 C 24.511719 282.484375 31.6875 293.601562 40.203125 303.742188 C 52.332031 318.195312 67.183594 329.828125 82.398438 340.769531 C 95.597656 350.253906 109.0625 359.53125 122.3125 368.949219 C 124.589844 370.5625 126.738281 372.421875 129.207031 374.40625 C 127.082031 375.554688 125.316406 376.566406 123.480469 377.5 C 105.992188 386.367188 89.171875 396.308594 73.664062 408.351562 C 64.316406 415.613281 55.28125 423.332031 48.898438 433.414062 C 38.628906 449.632812 34.996094 466.910156 42.648438 485.359375 C 44.882812 490.746094 48.292969 495.402344 53.105469 498.84375 C 54.664062 499.957031 56.410156 501.058594 58.234375 501.492188 C 62.910156 502.59375 67.671875 503.3125 72.398438 504.183594 L 85.796875 504.175781 C 100.609375 502.851562 114.09375 497.777344 126.28125 489.367188 C 145.324219 476.226562 158.15625 458.601562 163.671875 435.984375 C 167.683594 419.546875 167.84375 403.089844 163.121094 386.726562 C 162.683594 385.207031 162.128906 383.71875 161.554688 382.246094 C 160.980469 380.773438 160.304688 379.34375 159.511719 377.511719 L 189.878906 360.046875 L 190.335938 360.4375 C 189.785156 362.242188 189.195312 364.042969 188.695312 365.867188 C 185.089844 379.046875 182.691406 392.457031 183.550781 406.136719 C 184.46875 420.710938 188.539062 434.355469 197.070312 446.53125 C 203.96875 456.378906 220.410156 456.746094 227.742188 446.863281 C 230.34375 443.351562 232.863281 439.679688 234.757812 435.761719 C 239.710938 425.539062 244.292969 415.132812 249.023438 404.796875 L 249.851562 402.90625 C 249.511719 407.800781 249.113281 412.097656 248.933594 416.402344 C 248.648438 423.117188 249.042969 429.796875 251.339844 436.1875 C 253.304688 441.65625 256.648438 445.742188 262.910156 446.460938 C 267.195312 446.949219 270.609375 444.988281 273.757812 442.503906 C 278.679688 438.621094 282.675781 433.824219 285.644531 428.375 C 294.039062 412.957031 302.660156 397.628906 310.269531 381.820312 C 318.503906 364.726562 325.703125 347.128906 333.347656 329.738281 L 334.613281 326.65625 C 336.417969 333.753906 337.675781 340.707031 339.996094 347.289062 C 342.691406 354.925781 346.023438 362.378906 349.65625 369.628906 C 351.375 373.050781 351.175781 375.273438 348.792969 378.144531 C 338.828125 390.15625 329.039062 402.316406 319.238281 414.460938 C 317.070312 417.140625 314.910156 419.871094 313.101562 422.800781 C 312.011719 424.582031 311.289062 426.75 310.980469 428.824219 C 310.394531 432.789062 312.847656 436.617188 317.089844 437.53125 C 320.96875 438.363281 325.097656 438.675781 329.050781 438.382812 C 342.730469 437.375 355.148438 432.574219 366.128906 424.4375 C 380.355469 413.902344 384.921875 399.519531 381.476562 382.476562 C 380.546875 377.851562 378.898438 373.355469 377.296875 368.898438 C 376.574219 366.890625 376.527344 365.480469 377.839844 363.609375 C 389.210938 347.367188 398.929688 330.136719 407.964844 312.511719 C 408.324219 311.816406 408.6875 311.125 409.316406 310.382812 C 412.246094 325.621094 416.652344 340.304688 424.550781 353.628906 C 420.519531 357.511719 416.53125 361.03125 412.925781 364.910156 C 404.980469 373.453125 398.089844 382.726562 394.492188 394.039062 C 392.949219 398.914062 391.757812 403.871094 392.449219 409.078125 C 393.515625 417.164062 400.144531 422.421875 408.097656 420.578125 C 425.121094 416.640625 439.8125 408.617188 450.550781 394.410156 C 457.777344 384.84375 458.433594 374.171875 455.410156 362.992188 C 454.578125 359.953125 453.59375 356.964844 452.535156 353.480469 C 456.734375 352.175781 460.828125 350.613281 465.0625 349.644531 C 487.054688 344.628906 508.808594 345.503906 530 353.445312 C 542.371094 358.082031 552.363281 365.84375 558.292969 378.050781 C 565.53125 392.972656 561.53125 407.132812 547.460938 416.566406 C 546.148438 417.445312 544.648438 418.140625 543.5625 419.242188 C 542.894531 419.917969 542.492188 421.269531 542.65625 422.199219 C 542.75 422.742188 544.183594 423.421875 545.011719 423.414062 C 549.636719 423.378906 553.386719 420.953125 556.984375 418.464844 C 566.003906 412.222656 572.585938 403.824219 574.003906 392.769531 L 574.28125 391.941406 L 573.941406 384.742188 C 573.804688 384.328125 574.042969 383.914062 574.011719 383.601562 C 572.09375 367.503906 563.496094 355.015625 550.988281 345.230469 C 536.5 333.902344 519.394531 329.238281 501.304688 328.5 C 486.558594 327.898438 472.070312 330.089844 458.171875 335.136719 C 454.210938 336.574219 450.285156 338.273438 446.300781 339.875 C 445.765625 338.910156 445.191406 337.980469 444.71875 337.023438 C 440.628906 328.648438 435.675781 320.644531 434.578125 311.042969 C 433.800781 304.226562 432.847656 297.414062 434.46875 290.667969 C 436.027344 284.183594 438.058594 277.804688 439.972656 271.402344 C 440.957031 268.109375 440.265625 266.261719 437.121094 264.777344 C 436.023438 264.261719 434.832031 263.8125 433.648438 263.640625 C 425.917969 262.519531 418.296875 263.15625 410.808594 265.335938 C 408.160156 266.109375 406.234375 267.59375 405.644531 270.523438 C 405.308594 272.207031 404.625 273.820312 404.148438 275.480469 C 402.191406 282.382812 400.804688 289.421875 397.644531 295.996094 C 389.71875 312.492188 380.671875 328.367188 371.417969 344.125 C 370.414062 345.824219 369.359375 347.496094 368.09375 349.558594 C 364.84375 342.757812 361.378906 336.652344 360.324219 329.496094 C 359.136719 321.40625 358.203125 313.328125 360.214844 305.296875 C 361.710938 299.308594 363.667969 293.429688 365.472656 287.519531 C 366.324219 284.710938 365.929688 283.238281 363.386719 281.757812 C 362.101562 281.011719 360.648438 280.347656 359.199219 280.132812 C 351.183594 278.945312 343.285156 279.566406 335.550781 282.066406 C 333.152344 282.84375 331.894531 284.394531 331.164062 286.867188 C 329.007812 294.164062 327.167969 301.636719 324.144531 308.574219 C 311.890625 336.664062 299.285156 364.609375 286.695312 392.550781 C 284.066406 398.382812 280.988281 404.015625 278.023438 409.695312 C 277.273438 411.136719 276.179688 412.402344 275.242188 413.753906 C 274.492188 412.867188 274.199219 412.257812 274.203125 411.648438 C 274.226562 408.058594 273.796875 404.359375 274.484375 400.890625 C 276.554688 390.386719 278.9375 379.941406 281.453125 369.535156 C 283.527344 360.941406 285.945312 352.425781 288.246094 343.886719 C 289.019531 341.027344 289.03125 338.355469 286.976562 335.953125 C 283.527344 331.929688 276.320312 331.046875 272.042969 334.148438 L 270.152344 335.21875 L 270.519531 332.167969 C 271.421875 325.636719 271.601562 319.125 269.808594 312.691406 C 267.574219 304.671875 261.851562 300.054688 253.53125 300.3125 C 249.652344 300.429688 245.578125 301.09375 241.988281 302.507812 C 226.886719 308.425781 215.277344 318.90625 205.390625 331.515625 C 204.496094 332.660156 203.3125 333.703125 202.046875 334.402344 C 189.269531 341.488281 176.453125 348.484375 163.640625 355.507812 L 149.378906 363.320312 C 145.554688 359.671875 142.078125 355.886719 138.132812 352.675781 C 126.089844 342.851562 113.851562 333.273438 101.722656 323.5625 C 90.972656 314.953125 80.558594 305.988281 72.589844 294.585938 C 66.664062 286.105469 62.84375 276.828125 62.476562 266.34375 C 62.011719 252.980469 65.800781 240.773438 72.601562 229.410156 C 81.304688 214.871094 93.171875 203.203125 106.21875 192.632812 C 120.019531 181.457031 134.949219 171.96875 150.421875 163.308594 C 172.066406 151.195312 194.332031 140.46875 218.203125 133.390625 C 242.683594 126.128906 267.515625 121.972656 293.132812 124.871094 C 303.203125 126.011719 312.984375 128.316406 321.960938 133.242188 C 328.839844 137.007812 334.480469 141.941406 337.101562 149.652344 C 339.691406 157.242188 339.613281 164.929688 337.816406 172.636719 C 334.175781 188.246094 325.628906 201.113281 314.875 212.609375 C 297.234375 231.453125 275.714844 244.285156 251.488281 252.761719 C 237.511719 257.652344 223.128906 260.71875 208.359375 261.960938 C 196.308594 262.972656 184.503906 261.902344 173.09375 257.710938 C 165.535156 254.933594 158.953125 250.683594 153.664062 244.519531 C 152.71875 243.414062 151.507812 242.21875 149.746094 243.253906 C 148.019531 244.269531 147.714844 245.910156 148.292969 247.574219 C 149.261719 250.339844 150.152344 253.21875 151.660156 255.695312 C 155.441406 261.898438 160.964844 266.398438 167.042969 270.261719 C 178.714844 277.683594 191.761719 280.179688 205.289062 280.757812 C 225.820312 281.648438 245.847656 278.582031 265.597656 273.074219 C 293.789062 265.210938 318.300781 251.324219 337.960938 229.417969 C 354.328125 211.179688 366.019531 190.589844 368.523438 165.734375 C 369.746094 153.601562 368.445312 141.714844 362.765625 130.648438 C 356.601562 118.65625 346.804688 109.738281 335.09375 103.59375 C 318.035156 94.652344 299.628906 89.445312 280.625 89.445312 L 261.589844 89.445312 C 238.578125 89.445312 216.332031 96.039062 194.707031 103.90625 C 178.339844 109.863281 162.289062 116.894531 146.707031 124.675781 C 112.773438 141.632812 81.171875 162.078125 55.214844 190.191406 C 42.28125 204.195312 31.332031 219.648438 25.035156 237.847656 C 23.195312 243.171875 21.445312 248.882812 20.128906 254.390625 M 143.085938 413.449219 C 141.613281 433.144531 132.6875 449.109375 118.101562 462.042969 C 109.894531 469.3125 100.480469 474.488281 89.519531 476.308594 C 85.542969 476.96875 81.476562 477.125 77.621094 475.476562 C 72.121094 473.128906 70.890625 468.25 70.785156 463.050781 C 70.621094 454.765625 73.523438 447.273438 77.5 440.144531 C 82.695312 430.851562 90.308594 423.765625 98.441406 417.152344 C 111.25 406.722656 125.144531 397.898438 139.375 389.570312 L 140.449219 389.128906 C 142.648438 397.253906 143.695312 405.277344 143.085938 413.449219 Z M 254.199219 327.859375 C 253.164062 334.148438 251.863281 340.441406 250.027344 346.535156 C 243.675781 367.636719 235.519531 388.082031 226.699219 408.25 C 225.070312 411.984375 222.695312 415.390625 220.632812 418.925781 C 220.316406 419.472656 219.84375 419.945312 219.382812 420.402344 C 216.832031 422.925781 214.410156 422.792969 213.121094 419.492188 C 211.621094 415.660156 210.695312 411.554688 209.902344 407.496094 C 209.367188 404.769531 209.496094 401.910156 209.328125 399.117188 C 209.5 379.269531 215.554688 361.230469 225.828125 344.4375 C 230.0625 337.511719 234.675781 330.914062 241.71875 326.535156 C 243.882812 325.1875 246.3125 324.105469 248.765625 323.414062 C 252.519531 322.359375 254.824219 324.09375 254.199219 327.859375 Z M 330.007812 424.441406 L 357.257812 392.628906 C 358.390625 404.445312 338.308594 428.03125 330.007812 424.441406 Z M 417.03125 403.035156 C 415.105469 404.140625 413.007812 404.933594 411.035156 405.953125 C 409.226562 406.890625 408.632812 405.945312 408.578125 404.390625 C 408.542969 403.335938 408.699219 402.230469 408.988281 401.207031 C 412.667969 388.230469 419.4375 377.152344 429.515625 368.144531 L 430.21875 367.78125 C 435.011719 381.1875 429.472656 395.90625 417.03125 403.035156 Z M 417.03125 403.035156 "/>
</g>
</svg>
